<?xml version="1.0" standalone="no"?>
<!DOCTYPE svg PUBLIC "-//W3C//DTD SVG 20010904//EN"
 "http://www.w3.org/TR/2001/REC-SVG-20010904/DTD/svg10.dtd">
<svg version="1.0" xmlns="http://www.w3.org/2000/svg"
 width="2363.000000pt" height="2363.000000pt" viewBox="0 0 2363.000000 2363.000000"
 preserveAspectRatio="xMidYMid meet">
<metadata>
Created by potrace 1.11, written by Peter Selinger 2001-2013
</metadata>
<g transform="translate(0.000000,2363.000000) scale(0.100000,-0.100000)"
fill="#000000" stroke="none">
<path d="M11539 18906 c-2 -2 -60 -6 -129 -10 -157 -8 -349 -26 -450 -41 -25
-4 -75 -10 -152 -20 -78 -10 -302 -51 -438 -81 -14 -3 -36 -7 -50 -10 -256
-50 -718 -192 -1040 -319 -101 -40 -118 -47 -220 -92 -36 -16 -80 -36 -99 -44
-67 -27 -457 -226 -561 -286 -222 -127 -483 -296 -695 -452 -56 -41 -334 -259
-345 -271 -3 -3 -41 -36 -85 -75 -265 -231 -490 -456 -700 -700 -43 -49 -89
-104 -104 -120 -45 -53 -95 -116 -199 -255 -56 -74 -110 -146 -120 -160 -10
-14 -64 -92 -119 -175 -349 -525 -614 -1070 -817 -1679 -39 -115 -95 -302
-111 -366 -2 -8 -20 -82 -40 -165 -20 -82 -39 -159 -41 -170 -2 -11 -13 -65
-23 -120 -20 -102 -54 -301 -66 -388 -4 -27 -8 -56 -10 -65 -1 -10 -6 -46 -9
-82 -4 -36 -9 -81 -11 -100 -11 -91 -23 -256 -30 -415 -5 -95 -5 -536 -1 -615
8 -137 18 -277 21 -300 2 -14 6 -61 10 -104 4 -43 8 -86 10 -95 1 -9 6 -43 9
-76 4 -33 14 -103 22 -155 8 -52 17 -111 20 -130 3 -19 14 -80 25 -135 11 -55
23 -113 25 -130 3 -16 12 -57 21 -90 8 -33 17 -71 20 -85 12 -70 114 -434 157
-561 154 -458 308 -807 553 -1249 110 -199 310 -507 461 -710 86 -116 264
-340 313 -395 15 -16 37 -41 49 -55 152 -177 459 -486 641 -644 137 -119 258
-219 334 -276 33 -25 62 -47 65 -50 3 -3 21 -17 40 -30 19 -13 37 -27 40 -30
23 -28 402 -279 590 -391 873 -517 1905 -851 2885 -934 39 -4 88 -8 110 -11
211 -22 954 -22 1085 0 14 2 61 7 105 11 44 3 94 8 110 10 17 2 57 6 90 10 33
4 67 9 76 10 9 2 40 6 69 10 29 4 60 8 69 10 9 1 36 6 61 9 25 4 79 14 120 21
41 8 86 16 100 19 136 24 395 87 600 146 897 259 1770 721 2490 1320 69 57
130 109 136 115 6 5 45 39 85 75 41 35 160 150 265 255 790 787 1364 1719
1709 2775 31 96 58 182 61 190 2 8 26 100 53 204 28 104 52 201 55 215 2 14
11 58 20 96 17 78 19 84 47 240 20 112 23 133 34 220 3 28 8 57 10 65 2 8 7
47 11 85 3 39 8 77 9 85 2 8 6 53 10 100 4 47 8 101 10 120 24 248 24 942 1
979 -3 5 -25 5 -48 1 -24 -5 -63 -11 -88 -15 -25 -3 -72 -10 -105 -15 -33 -5
-78 -12 -100 -15 -22 -4 -51 -8 -65 -10 -14 -2 -88 -13 -165 -25 -77 -11 -151
-23 -165 -25 -14 -2 -47 -7 -75 -10 -27 -4 -57 -8 -65 -10 -14 -4 -80 -14
-125 -20 -11 -1 -32 -3 -47 -4 l-27 -1 3 -215 c1 -118 1 -228 -2 -244 l-4 -29
-51 13 c-29 7 -90 18 -137 25 -47 7 -94 14 -105 16 -11 2 -108 17 -215 34
-107 16 -206 32 -220 34 -14 3 -41 7 -60 10 -19 3 -93 15 -165 26 -71 12 -141
23 -155 25 -14 2 -45 7 -70 11 -25 4 -54 8 -65 9 -11 2 -47 8 -80 14 -151 27
-207 30 -280 18 -16 -2 -43 -5 -60 -6 -62 -3 -61 -10 8 -132 36 -63 77 -136
92 -164 15 -27 31 -54 36 -59 13 -15 11 -23 -8 -29 -10 -3 -184 -62 -388 -132
-203 -70 -381 -130 -395 -135 -14 -4 -212 -72 -440 -150 -228 -78 -426 -145
-440 -150 -30 -10 -809 -276 -830 -283 -56 -20 -318 -109 -330 -112 -8 -2 -24
-7 -35 -10 -18 -5 -26 14 -89 217 -39 123 -89 284 -112 358 -24 74 -90 288
-149 475 -58 187 -122 392 -142 455 -21 63 -37 117 -38 120 0 3 -11 38 -23 77
-12 40 -22 74 -21 75 1 2 -6 21 -15 42 -18 44 -31 20 102 198 31 43 90 122
131 178 61 83 80 102 110 109 338 89 392 103 398 102 2 0 17 5 35 10 18 6 40
12 48 14 8 1 123 31 255 65 132 34 245 63 250 64 6 2 24 6 40 11 51 14 759
196 775 200 8 1 44 11 80 20 36 9 72 18 80 20 8 2 37 9 63 15 26 7 49 11 51 9
4 -5 129 -225 169 -299 17 -30 40 -71 51 -90 12 -19 27 -46 34 -60 l13 -26
100 15 c94 14 112 23 90 47 -5 5 -61 101 -124 214 -63 113 -129 230 -146 260
-17 30 -45 81 -63 113 -17 32 -43 64 -57 71 -14 8 -63 19 -108 25 -45 7 -90
13 -100 15 -10 2 -36 6 -58 10 -22 3 -98 15 -170 26 -213 34 -378 59 -415 65
-19 2 -44 6 -55 9 -11 2 -40 7 -65 10 -25 3 -56 8 -69 11 -12 2 -42 7 -65 9
-22 3 -51 8 -63 10 -12 3 -73 12 -137 22 -64 10 -116 21 -116 25 0 7 461 637
951 1299 42 58 131 179 198 270 66 91 124 170 128 175 5 6 116 156 247 335
131 179 253 344 270 367 17 23 35 43 40 43 14 0 202 -170 370 -336 380 -376
737 -854 1010 -1351 212 -387 402 -864 512 -1286 l39 -149 60 7 c63 8 74 9
140 20 84 13 204 32 260 40 23 3 50 7 60 9 11 2 43 7 70 10 78 11 116 16 175
26 30 5 75 12 100 15 25 3 70 10 100 15 30 6 67 11 83 12 32 3 34 20 13 91 -8
26 -12 47 -10 47 2 0 -1 11 -6 25 -5 14 -12 36 -14 48 -7 41 -37 152 -47 177
-5 14 -11 34 -13 45 -22 105 -192 582 -272 763 -8 17 -21 49 -30 70 -185 431
-490 958 -783 1352 -77 104 -76 102 -217 275 -258 318 -608 673 -908 920 -26
22 -53 45 -60 51 -6 6 -67 54 -135 108 -579 454 -1288 844 -1961 1078 -230 79
-572 181 -690 204 -14 3 -43 10 -65 16 -59 15 -217 48 -305 63 -19 3 -42 8
-50 10 -8 2 -35 7 -60 10 -25 3 -56 8 -70 10 -55 10 -181 27 -295 40 -27 3
-63 8 -80 10 -16 2 -68 7 -115 10 -47 4 -101 9 -120 11 -42 6 -766 15 -771 10z
m746 -1100 c17 -2 66 -7 110 -10 44 -4 96 -9 115 -12 19 -3 49 -7 65 -9 43 -5
127 -17 145 -20 8 -2 35 -6 60 -9 25 -4 79 -14 120 -22 41 -8 86 -16 100 -19
366 -69 829 -217 1210 -385 146 -64 473 -229 509 -257 6 -4 -35 -64 -136 -199
-49 -66 -148 -200 -221 -299 -73 -99 -194 -264 -269 -367 -76 -103 -145 -197
-153 -209 -8 -12 -24 -34 -36 -48 -18 -23 -648 -878 -692 -940 -9 -13 -26 -35
-38 -50 -11 -14 -121 -163 -243 -331 -123 -168 -227 -309 -231 -314 -11 -12
-4 180 15 389 4 42 14 111 25 170 5 28 11 64 14 80 11 73 43 205 86 360 95
336 288 745 485 1026 59 84 59 85 -8 94 -12 2 -71 13 -132 25 -124 25 -114 23
-215 43 -41 9 -86 18 -100 20 -14 3 -92 19 -175 36 -82 17 -161 32 -175 35
-14 2 -104 20 -200 40 -96 19 -186 37 -200 40 -14 2 -104 20 -200 40 -96 19
-186 38 -200 40 -20 4 -143 29 -255 52 -247 50 -329 65 -339 61 -30 -12 -203
-299 -291 -483 -116 -243 -226 -558 -280 -804 -28 -125 -39 -180 -50 -254 -4
-21 -8 -48 -11 -60 -2 -11 -6 -45 -10 -74 -3 -29 -7 -61 -9 -70 -1 -9 -6 -51
-10 -92 -3 -41 -8 -95 -11 -120 -5 -61 -5 -479 0 -507 3 -12 8 -57 11 -100 11
-130 13 -145 29 -233 23 -124 27 -115 -61 -138 -43 -11 -168 -45 -278 -76
-110 -32 -209 -59 -220 -62 -38 -8 -190 -53 -185 -54 3 -1 16 -3 30 -6 14 -2
63 -10 110 -18 47 -8 101 -17 120 -20 128 -20 233 -37 285 -46 33 -6 76 -13
95 -16 19 -2 46 -7 60 -9 36 -7 60 -11 205 -35 72 -11 142 -23 158 -25 15 -3
42 -7 60 -10 17 -3 44 -8 59 -11 15 -3 42 -7 60 -9 37 -5 103 -15 133 -21 11
-3 61 -11 110 -19 50 -8 104 -17 120 -20 59 -10 96 -16 133 -21 20 -2 48 -7
62 -9 14 -3 68 -12 120 -20 133 -22 135 -22 234 -39 49 -9 90 -17 92 -18 1 -2
-34 -54 -79 -116 l-82 -113 -55 5 c-30 3 -64 7 -75 10 -11 2 -42 7 -70 10 -27
4 -57 9 -65 11 -8 2 -37 6 -65 10 -27 3 -75 10 -105 15 -30 5 -75 12 -100 15
-25 3 -70 10 -100 15 -99 17 -114 19 -160 25 -41 5 -136 19 -200 30 -38 6
-230 36 -269 41 -19 2 -46 6 -60 9 -14 2 -44 7 -66 10 -22 4 -67 11 -100 16
-33 5 -73 12 -90 14 -16 2 -46 7 -65 10 -19 3 -53 8 -75 11 -22 3 -96 14 -165
25 -69 10 -143 22 -165 25 -22 4 -49 8 -59 10 -11 2 -40 6 -65 9 -25 3 -57 7
-71 10 -13 3 -42 7 -65 10 -22 3 -83 13 -135 21 -52 8 -108 17 -125 19 -248
37 -397 60 -450 69 -16 2 -66 10 -110 16 -44 7 -87 14 -96 15 -9 2 -40 6 -69
10 -29 4 -60 8 -69 10 -31 6 -170 26 -189 28 -44 3 -2 18 113 41 11 2 81 18
155 36 74 17 146 34 160 36 14 3 33 7 42 10 9 3 25 7 35 9 10 2 56 13 103 23
47 11 139 32 205 47 66 15 126 29 135 31 100 24 240 56 260 60 21 4 90 20 255
59 11 3 29 7 40 9 101 21 498 115 502 119 5 5 -15 178 -21 185 -2 1 -51 -9
-110 -23 -59 -13 -117 -27 -129 -29 -12 -2 -62 -14 -112 -26 -49 -12 -101 -24
-115 -26 -14 -3 -33 -7 -42 -10 -9 -3 -25 -7 -35 -9 -10 -2 -58 -13 -108 -24
-49 -12 -101 -24 -115 -27 -14 -2 -95 -21 -180 -40 -85 -20 -162 -38 -170 -39
-166 -38 -398 -92 -478 -110 -56 -14 -113 -27 -125 -29 -12 -2 -190 -43 -396
-91 -310 -71 -381 -91 -415 -114 l-41 -29 -183 -488 c-101 -269 -219 -586
-264 -704 -44 -118 -95 -253 -113 -300 -18 -47 -81 -217 -141 -377 -102 -275
-110 -293 -139 -305 -16 -6 -63 -27 -103 -45 -39 -18 -74 -33 -77 -33 -3 0
-24 -8 -48 -19 -23 -10 -76 -33 -117 -51 -41 -17 -88 -38 -105 -45 -16 -7 -75
-32 -130 -55 -55 -24 -118 -50 -140 -60 -87 -39 -118 -50 -123 -45 -7 6 -7 8
-17 100 -4 39 -9 87 -11 107 -28 239 -34 817 -10 1008 2 14 7 65 11 114 4 50
8 97 10 105 2 9 6 45 10 81 3 36 8 72 10 80 3 8 7 33 10 55 12 95 62 360 83
440 6 22 13 51 16 65 2 14 7 32 10 40 3 8 8 29 11 45 17 88 120 413 184 583
213 562 484 1047 854 1532 45 58 83 107 87 110 3 3 29 34 59 70 191 232 530
570 766 763 78 64 255 200 315 242 39 28 76 55 83 60 28 23 218 145 226 145 5
0 11 4 13 8 6 15 276 168 463 262 170 86 232 115 355 167 19 8 44 19 55 24
106 46 313 120 499 178 130 41 450 125 516 136 19 3 69 12 110 20 112 23 143
28 235 41 22 3 67 9 100 14 33 5 87 12 120 15 33 3 74 8 90 10 17 2 82 7 145
10 63 4 117 9 119 11 5 4 707 -4 746 -10z m-1005 -1167 c25 -6 56 -13 70 -16
35 -6 760 -152 788 -158 12 -3 34 -7 50 -10 25 -5 102 -20 147 -29 404 -82
525 -106 548 -110 15 -2 35 -7 45 -10 9 -3 33 -7 53 -10 19 -3 45 -9 57 -13
21 -8 21 -9 -14 -68 -40 -65 -159 -296 -186 -360 -63 -148 -82 -196 -126 -325
-42 -121 -68 -206 -97 -320 -7 -28 -54 -255 -60 -290 -17 -104 -24 -154 -30
-220 -3 -30 -8 -73 -11 -95 -4 -22 -7 -158 -8 -302 l-1 -262 -140 -189 -139
-189 -36 8 c-31 6 -77 14 -157 24 -24 3 -95 15 -127 21 -10 2 -37 6 -60 8 -22
3 -52 8 -66 10 -27 5 -116 18 -140 21 -8 1 -35 5 -60 9 -25 4 -56 9 -70 11
-14 2 -43 6 -65 10 -22 3 -55 8 -74 11 -19 2 -46 6 -60 9 -14 2 -53 9 -86 14
-33 6 -116 20 -185 32 -69 11 -134 23 -145 24 -83 14 -168 34 -175 41 -4 5
-11 27 -14 49 -4 22 -8 47 -11 55 -6 22 -13 66 -25 155 -6 44 -13 96 -15 115
-22 160 -21 538 0 720 2 19 7 60 10 90 8 71 41 271 61 363 81 375 233 770 415
1074 77 129 64 120 139 102z m2472 -2893 c12 -3 41 -7 63 -10 22 -3 72 -10
110 -16 39 -6 81 -13 95 -15 59 -8 116 -18 135 -21 10 -2 37 -6 60 -9 22 -3
47 -8 55 -10 8 -2 38 -6 65 -10 62 -7 96 -13 160 -25 28 -5 97 -16 155 -25
119 -17 151 -23 156 -28 3 -3 -63 -21 -121 -33 -5 -1 -89 -22 -185 -47 -218
-57 -610 -158 -630 -162 -8 -2 -30 -8 -47 -14 -18 -5 -33 -8 -33 -6 0 3 -11 0
-25 -5 -46 -18 -537 -141 -542 -137 -2 3 3 13 11 24 9 10 59 77 112 148 53 72
97 131 98 132 3 3 148 35 163 36 31 1 -3 16 -53 23 -41 5 -54 10 -50 20 3 8
38 57 77 110 79 105 71 101 171 80z m2653 -1975 c22 -5 62 -12 89 -16 27 -3
52 -8 55 -10 4 -2 33 -6 66 -9 33 -4 67 -9 75 -11 8 -2 31 -6 50 -9 19 -3 96
-15 170 -26 74 -12 151 -23 170 -26 19 -2 42 -6 50 -9 8 -2 38 -7 65 -10 28
-4 57 -8 65 -10 8 -2 38 -7 65 -10 28 -4 57 -8 65 -10 8 -2 35 -7 60 -10 25
-3 52 -8 60 -10 8 -2 35 -7 58 -10 254 -36 537 -248 669 -502 40 -76 79 -180
88 -235 3 -16 8 -43 11 -60 7 -44 7 -179 0 -215 -4 -15 -8 -37 -10 -48 -8 -42
-39 -122 -64 -165 -45 -80 -48 -83 -418 -467 -111 -114 -219 -226 -240 -249
-57 -59 -107 -87 -272 -153 -123 -49 -414 -168 -487 -200 -43 -19 -93 -40
-165 -71 l-75 -31 36 38 c20 21 65 68 100 104 255 265 282 298 339 421 49 105
69 195 74 333 10 293 -114 586 -344 814 -142 141 -293 228 -505 290 -30 9 -67
16 -140 26 -22 3 -62 10 -90 15 -27 5 -66 11 -85 14 -170 23 -179 27 -113 48
177 59 589 201 592 204 2 2 -10 27 -27 55 -18 27 -32 52 -32 54 0 2 -22 42
-50 89 l-49 86 27 0 c15 0 45 -5 67 -9z m-9330 -395 c49 -7 108 -17 135 -22
42 -7 143 -23 185 -29 22 -4 47 -8 55 -10 8 -3 33 -7 55 -10 35 -5 98 -16 175
-30 14 -2 54 -9 90 -15 36 -5 76 -12 90 -15 13 -2 42 -7 65 -10 22 -4 130 -21
240 -40 110 -18 218 -36 240 -39 36 -6 179 -30 245 -41 60 -11 629 -105 665
-110 22 -4 47 -8 55 -10 8 -3 33 -7 55 -10 42 -6 132 -22 175 -30 13 -3 42 -7
65 -11 22 -3 119 -19 215 -35 96 -17 192 -32 214 -35 67 -8 70 -14 28 -70 -20
-27 -74 -100 -119 -161 -80 -107 -84 -111 -115 -107 -18 3 -85 14 -148 24 -63
10 -131 21 -150 24 -19 3 -53 8 -75 11 -22 3 -80 13 -130 21 -49 8 -101 17
-115 19 -24 4 -185 29 -260 40 -19 3 -77 13 -128 21 -51 8 -106 17 -123 19
-17 2 -42 6 -57 9 -15 3 -45 8 -67 11 -22 3 -92 14 -155 25 -63 10 -133 21
-155 25 -22 3 -51 7 -65 10 -14 2 -43 6 -65 10 -22 3 -69 10 -105 16 -36 6
-78 13 -95 15 -16 3 -52 9 -80 14 -27 5 -70 12 -95 14 -25 3 -56 8 -70 11 -37
8 -70 13 -120 20 -25 3 -56 8 -70 10 -23 4 -47 8 -120 20 -14 2 -43 6 -65 10
-23 3 -50 7 -62 9 -11 3 -38 7 -59 10 -22 4 -64 11 -94 16 -30 5 -75 12 -100
15 -25 3 -52 8 -60 10 -8 2 -40 7 -70 10 -30 4 -57 8 -60 10 -3 2 -27 6 -55 9
-94 13 -120 17 -150 23 -31 6 -44 8 -110 18 -22 3 -67 10 -100 17 -33 6 -68
10 -77 10 -10 0 -20 3 -23 9 -4 5 0 9 8 9 13 0 66 22 194 81 24 10 45 19 49
19 3 0 42 16 87 36 45 19 97 42 115 50 17 8 49 22 70 31 87 39 147 61 157 57
5 -2 24 -5 40 -8z m-933 -655 c114 -72 180 -253 148 -405 -11 -52 -46 -146
-55 -146 -5 0 -39 110 -70 225 -46 172 -53 198 -65 260 -6 33 -14 68 -16 78
-7 24 5 21 58 -12z m5348 -81 c76 -12 112 -18 160 -26 19 -4 46 -8 60 -10 14
-1 41 -6 60 -10 19 -3 44 -8 55 -9 34 -5 149 -25 175 -30 14 -3 41 -7 62 -10
20 -2 76 -12 125 -20 48 -9 104 -18 123 -21 19 -2 46 -7 60 -10 14 -3 43 -8
65 -10 22 -3 47 -7 56 -10 9 -2 34 -7 55 -10 22 -2 50 -7 64 -9 14 -3 41 -8
60 -11 19 -3 46 -7 60 -10 14 -2 41 -7 60 -9 19 -3 44 -8 56 -10 12 -3 39 -7
60 -11 21 -3 77 -12 124 -21 87 -15 145 -17 164 -5 6 3 16 7 21 9 6 1 102 34
215 73 222 77 221 77 370 50 30 -5 114 -19 185 -30 72 -11 157 -25 190 -30 33
-6 76 -12 95 -15 19 -3 60 -10 90 -15 30 -5 73 -12 95 -15 302 -38 567 -228
723 -516 33 -61 77 -191 89 -259 13 -79 7 -241 -10 -308 -17 -65 -63 -167 -84
-190 -7 -7 -13 -16 -13 -20 -1 -10 -57 -70 -296 -318 -366 -381 -385 -399
-444 -426 -89 -42 -128 -58 -135 -58 -6 0 -368 -149 -450 -185 -56 -25 -278
-115 -283 -115 -3 0 43 48 101 108 254 257 302 315 357 428 203 421 27 980
-405 1286 -127 90 -297 163 -430 184 -27 4 -52 9 -55 9 -3 1 -27 5 -55 9 -27
4 -72 11 -100 16 -27 5 -68 12 -90 15 -42 6 -79 11 -130 20 -16 3 -52 8 -80
11 -27 3 -53 8 -57 10 -4 3 -26 7 -50 10 -24 3 -70 10 -103 16 -33 5 -69 11
-80 13 -70 9 -126 17 -170 25 -27 5 -68 12 -90 15 -23 3 -51 7 -64 10 -13 2
-42 7 -65 9 -22 3 -50 7 -61 10 -11 2 -56 9 -100 16 -44 7 -89 14 -100 16 -33
7 -122 21 -180 29 -42 5 -105 15 -135 20 -14 3 -42 8 -64 11 -21 3 -47 7 -56
9 -10 2 -40 6 -67 10 -86 12 -87 13 -67 43 9 15 62 87 116 160 92 123 101 133
126 128 15 -3 56 -10 92 -16z m-4505 -774 c44 -8 98 -17 120 -20 22 -3 63 -10
90 -16 28 -5 68 -12 90 -15 22 -3 94 -15 160 -26 66 -11 134 -22 150 -25 17
-2 53 -9 80 -14 28 -5 70 -12 95 -15 25 -4 49 -10 54 -15 12 -12 10 -176 -3
-245 -36 -180 -147 -350 -281 -427 -72 -42 -142 -58 -235 -55 -70 3 -93 9
-156 39 -146 70 -246 200 -305 394 -18 61 -26 277 -12 339 4 17 9 40 12 53 16
71 13 70 141 48z m1459 -242 c21 -3 48 -8 60 -10 11 -2 50 -9 86 -14 36 -5 74
-11 85 -14 11 -2 42 -7 68 -10 27 -4 56 -9 65 -11 10 -1 62 -10 117 -19 55
-10 111 -19 124 -21 13 -2 44 -7 68 -11 23 -3 43 -8 43 -11 0 -5 -233 -324
-255 -350 -5 -6 -64 -86 -130 -177 -66 -91 -124 -166 -129 -166 -24 0 -113 70
-159 124 -127 153 -185 386 -147 595 16 90 27 113 48 107 9 -3 34 -8 56 -12z
m4934 -60 c95 -60 161 -187 163 -317 1 -77 -3 -101 -26 -165 -77 -213 -301
-279 -446 -131 -23 24 -56 72 -73 108 -29 61 -31 74 -31 171 0 88 4 115 25
168 29 75 94 147 160 180 65 32 162 26 228 -14z m-2878 -278 c23 -4 100 -17
180 -32 19 -3 44 -7 55 -8 11 -2 44 -6 73 -10 52 -8 52 -8 53 -44 9 -271 -126
-524 -332 -623 -152 -74 -336 -41 -476 85 -103 94 -108 71 73 317 86 118 175
240 198 272 l41 58 55 -6 c30 -3 66 -7 80 -9z m6500 -152 c0 -12 -178 -307
-263 -434 -83 -126 -292 -410 -333 -455 -11 -11 -41 -47 -68 -80 -113 -139
-368 -406 -541 -566 -131 -120 -363 -310 -512 -416 -110 -80 -292 -203 -300
-203 -3 0 -14 -6 -22 -14 -60 -52 -479 -278 -714 -385 -260 -117 -670 -265
-879 -317 -10 -2 -27 -6 -38 -9 -11 -3 -28 -7 -38 -9 -9 -2 -37 -9 -62 -16
-25 -7 -52 -13 -60 -15 -8 -2 -69 -14 -135 -28 -66 -14 -149 -31 -185 -36 -36
-6 -78 -13 -95 -16 -58 -10 -91 -14 -140 -20 -27 -4 -60 -8 -72 -10 -12 -2
-57 -6 -100 -10 -43 -4 -89 -8 -103 -10 -151 -25 -828 -25 -1021 0 -18 2 -68
7 -109 11 -41 3 -82 8 -91 9 -9 2 -40 6 -69 10 -29 4 -60 8 -69 10 -18 3 -90
14 -136 21 -16 2 -41 7 -55 9 -14 3 -36 7 -50 10 -14 3 -36 7 -50 10 -28 6
-62 13 -100 20 -56 10 -282 68 -380 96 -353 103 -751 261 -1057 421 -115 60
-366 203 -441 251 l-42 27 17 28 c10 15 20 29 23 32 7 7 66 86 270 365 221
300 295 402 320 435 11 14 46 62 79 107 57 78 62 83 93 79 35 -5 226 -34 268
-42 29 -5 286 -45 315 -49 11 -2 79 -13 150 -24 72 -12 159 -26 195 -31 36 -6
90 -15 120 -20 89 -15 131 -21 174 -26 23 -3 48 -7 56 -9 8 -3 33 -7 55 -10
22 -4 78 -13 125 -20 47 -8 103 -17 125 -20 22 -2 51 -7 65 -10 14 -3 43 -8
65 -11 22 -2 52 -7 68 -9 15 -3 42 -7 60 -10 17 -3 43 -7 57 -10 14 -3 39 -7
55 -9 59 -9 120 -18 140 -22 11 -3 39 -7 61 -10 23 -2 53 -7 65 -9 13 -3 98
-16 189 -30 91 -15 174 -28 185 -30 11 -3 38 -7 60 -10 50 -7 153 -24 181 -29
12 -2 45 -7 75 -11 30 -3 61 -8 69 -10 8 -2 33 -7 55 -10 22 -3 76 -11 120
-18 157 -25 318 -3 460 63 33 15 247 105 475 200 228 95 433 181 455 190 22
10 143 60 270 111 234 95 313 138 375 201 19 20 121 125 225 234 105 109 206
215 227 235 33 35 40 38 80 33 23 -3 50 -7 58 -9 8 -2 38 -7 65 -10 28 -4 57
-8 65 -10 8 -3 49 -10 90 -16 41 -6 91 -13 110 -16 19 -3 68 -11 108 -18 150
-26 333 0 467 66 37 18 830 348 838 349 4 0 7 -3 7 -6z m-5221 -60 c185 -30
347 -57 360 -59 13 -2 45 -8 70 -12 25 -4 48 -8 51 -8 27 -6 117 -18 123 -17
19 5 10 -157 -14 -251 -124 -487 -621 -606 -877 -208 -75 115 -110 242 -110
392 0 53 4 116 10 140 5 24 11 51 13 59 2 8 4 16 4 18 2 6 57 -2 370 -54z
m-4414 -703 c72 -12 139 -23 150 -25 11 -2 45 -7 75 -12 30 -4 57 -8 60 -9 3
-1 30 -5 60 -9 30 -5 62 -10 71 -11 45 -9 97 -17 124 -20 17 -2 84 -13 150
-24 66 -12 130 -21 143 -21 12 0 22 -4 22 -9 0 -9 -187 -267 -378 -523 l-35
-46 -121 122 c-189 191 -420 454 -518 590 l-21 28 44 -5 c24 -3 103 -15 174
-26z"/>
<path d="M11851 16059 c-11 -18 -37 -70 -58 -116 l-38 -83 -42 0 c-52 0 -149
-30 -206 -64 -94 -55 -180 -180 -205 -301 -15 -70 -7 -170 18 -237 32 -86 95
-170 222 -299 152 -153 191 -232 167 -338 -17 -77 -70 -95 -164 -55 -91 38
-166 98 -252 201 -52 63 -63 66 -76 18 -3 -11 -24 -68 -46 -127 -23 -59 -41
-113 -41 -121 0 -19 99 -118 158 -159 26 -18 72 -46 102 -63 47 -25 55 -35 56
-60 5 -90 16 -228 20 -239 3 -7 57 -25 122 -41 64 -15 125 -30 136 -33 17 -5
18 0 11 79 -5 46 -9 111 -9 143 -1 58 -1 59 29 63 17 2 53 15 80 27 128 60
197 196 198 394 1 195 -68 343 -248 528 -104 107 -142 154 -160 197 -36 86 28
187 118 187 32 0 102 -30 145 -63 18 -13 57 -56 88 -95 l56 -70 45 66 c25 37
49 69 52 72 15 12 81 109 81 119 0 22 -97 129 -150 166 -22 15 -40 34 -40 42
0 7 25 63 56 124 30 61 54 112 52 114 -2 1 -46 10 -98 20 -52 9 -106 19 -119
22 -14 2 -28 6 -33 9 -4 3 -17 -10 -27 -27z"/>
<path d="M22135 14010 c-27 -4 -66 -10 -85 -13 -19 -3 -57 -9 -85 -12 -27 -4
-95 -13 -150 -21 -55 -9 -120 -17 -145 -20 -25 -2 -70 -9 -100 -14 -30 -5 -82
-12 -115 -16 -33 -3 -62 -8 -65 -9 -3 -2 -30 -6 -60 -9 -30 -4 -66 -9 -80 -11
-14 -2 -45 -7 -70 -10 -25 -4 -56 -8 -70 -10 -14 -2 -43 -6 -65 -9 -22 -3
-103 -15 -181 -26 -77 -11 -167 -23 -200 -26 -72 -8 -106 -24 -137 -66 -69
-93 -84 -370 -32 -594 45 -195 137 -373 221 -424 31 -20 44 -22 102 -16 37 3
78 8 91 11 13 2 49 7 80 11 31 3 63 8 72 9 9 2 40 6 70 10 30 4 56 8 59 10 3
2 39 6 80 10 41 4 77 8 80 10 3 2 30 6 60 10 30 3 96 13 145 20 50 8 113 16
140 20 44 5 77 10 215 30 19 3 103 14 185 26 83 11 164 23 180 26 17 3 40 5
53 4 12 0 22 2 22 6 0 3 -18 29 -39 57 -175 230 -253 706 -155 956 9 25 23 52
31 61 14 17 17 30 6 28 -5 -1 -30 -5 -58 -9z"/>
<path d="M22297 13918 c-55 -74 -68 -273 -32 -488 24 -142 106 -336 171 -403
67 -70 110 -36 139 114 13 70 13 241 0 314 -18 100 -55 236 -76 285 -56 126
-123 210 -168 210 -5 0 -21 -15 -34 -32z"/>
<path d="M20200 13610 c-19 -4 -57 -11 -85 -14 -27 -3 -72 -10 -100 -15 -27
-5 -74 -12 -104 -16 -30 -4 -62 -8 -72 -10 -9 -2 -39 -6 -66 -10 -26 -4 -59
-9 -73 -11 -14 -2 -43 -7 -65 -9 -22 -3 -83 -13 -135 -21 -140 -22 -141 -22
-190 -28 -25 -3 -54 -8 -66 -10 -12 -2 -45 -7 -75 -11 -30 -3 -61 -8 -69 -10
-8 -2 -35 -7 -60 -10 -25 -3 -52 -8 -60 -10 -8 -2 -42 -7 -75 -10 -32 -4 -62
-8 -65 -10 -3 -1 -30 -6 -60 -9 -30 -4 -66 -8 -80 -10 -14 -3 -59 -10 -100
-16 -41 -6 -86 -14 -100 -16 -14 -2 -44 -7 -66 -10 -23 -2 -50 -6 -60 -8 -11
-2 -44 -7 -74 -11 -30 -4 -64 -9 -75 -11 -10 -2 -37 -6 -60 -9 -43 -6 -144
-22 -185 -29 -14 -3 -45 -7 -70 -10 -25 -3 -54 -8 -66 -10 -12 -2 -45 -7 -74
-11 -29 -4 -62 -9 -74 -11 -12 -2 -41 -7 -66 -10 -25 -3 -53 -8 -64 -10 -10
-2 -44 -6 -75 -10 -31 -3 -58 -8 -61 -9 -3 -2 -29 -6 -59 -10 -30 -4 -61 -8
-70 -10 -36 -6 -132 -21 -201 -30 -25 -3 -56 -8 -70 -10 -32 -6 -74 -12 -130
-20 -56 -8 -98 -14 -130 -20 -14 -2 -45 -7 -70 -10 -25 -3 -72 -10 -105 -15
-33 -5 -78 -12 -100 -15 -22 -3 -65 -10 -95 -15 -30 -5 -75 -12 -100 -15 -54
-7 -96 -14 -130 -20 -14 -2 -45 -7 -70 -10 -25 -3 -70 -10 -100 -15 -30 -5
-75 -12 -100 -15 -25 -3 -70 -10 -100 -15 -30 -5 -75 -12 -100 -15 -25 -4 -58
-8 -75 -11 -52 -8 -99 -15 -135 -19 -19 -3 -46 -7 -60 -10 -27 -5 -40 -7 -165
-25 -44 -7 -88 -14 -99 -16 -10 -2 -44 -6 -75 -10 -31 -3 -58 -8 -61 -9 -3 -2
-30 -6 -60 -10 -30 -3 -95 -13 -145 -20 -49 -8 -108 -17 -130 -20 -22 -4 -51
-8 -65 -10 -14 -2 -47 -7 -75 -11 -27 -3 -52 -8 -55 -9 -3 -2 -35 -7 -70 -10
-36 -4 -67 -8 -70 -10 -3 -2 -27 -6 -55 -9 -27 -4 -59 -8 -70 -10 -36 -5 -132
-229 -150 -351 -31 -210 41 -387 204 -503 58 -41 57 -41 211 -16 19 3 51 7 70
10 19 2 44 6 55 8 11 3 43 8 70 11 28 4 57 8 65 11 8 2 38 6 65 9 28 4 62 8
78 11 52 8 82 13 162 24 44 7 87 14 96 15 9 2 40 6 70 10 30 3 61 8 69 10 8 2
35 6 60 9 25 3 54 8 65 10 21 4 86 13 145 21 19 3 46 7 60 10 14 3 45 7 70 11
25 3 70 9 100 15 30 5 76 11 101 14 26 3 57 8 70 10 13 3 41 7 64 10 22 3 65
10 95 15 30 5 75 12 100 15 25 3 86 12 135 20 50 8 110 16 135 20 25 3 70 10
100 15 30 5 78 12 105 16 28 3 59 8 70 10 10 2 37 6 60 9 22 3 81 12 130 20
50 8 110 17 135 20 25 3 72 10 105 15 33 5 76 12 95 15 125 18 308 46 330 50
14 2 45 7 70 10 25 3 56 7 70 10 14 2 45 7 70 10 25 3 56 8 70 10 14 3 39 7
55 9 17 3 44 7 60 10 50 8 186 28 219 32 17 2 42 6 56 8 14 3 45 8 70 11 25 3
56 8 70 10 38 7 118 19 197 30 15 2 60 8 98 15 98 15 110 17 200 30 85 12 92
13 195 29 36 6 85 13 110 16 25 3 52 7 60 10 8 2 39 7 69 10 30 4 62 8 71 10
9 2 41 6 71 10 30 3 61 8 69 10 8 2 35 7 60 10 25 3 88 13 140 21 106 16 137
21 195 29 22 3 49 7 60 9 11 2 43 7 70 10 28 4 61 8 75 11 36 7 78 13 130 20
25 3 54 8 65 10 11 2 29 4 40 4 45 2 47 15 16 77 -90 182 -144 459 -145 747 0
65 -1 67 -26 66 -14 -1 -41 -5 -60 -9z"/>
</g>
</svg>
