<svg xmlns="http://www.w3.org/2000/svg" xmlns:xlink="http://www.w3.org/1999/xlink" version="1.1" id="Layer_1" x="0" y="0" width="567.1" height="150.41" viewBox="0 0 567.1 150.41" enable-background="new 0 0 567.097 150.412" xml:space="preserve">
  <path fill="#C2112B" d="M75.21 150.41v-11.73c35 0 63.48-28.48 63.48-63.48 0-35-28.48-63.48-63.48-63.48V0c41.47 0 75.21 33.74 75.21 75.2C150.42 116.67 116.68 150.41 75.21 150.41L75.21 150.41z"/>
  <path fill="#FFFFFF" d="M121.06 108.4c-0.53-0.34-1.51-1.01-2.21-1.48 -1.51-1.02-1.98-1.35-2.25-1.45L42.72 73.14c-0.13-0.06-0.27-0.09-0.41-0.09l15.27-6.37c0.99-0.44 2.07-0.66 3.25-0.66 0.46 0 0.95 0.04 1.44 0.11l29.25 4.65 45.71 7.23c5.11 0.81 9.26 5.65 9.26 10.77 0 2.23-0.81 4.26-2.27 5.72 -0.04 0.04-0.08 0.08-0.11 0.13l-5.08 5.26 -1.16 1.22c-0.4 0.33-0.78 0.59-1.19 0.81l-1.6 0.65c-0.07 0.01-0.16 0.05-0.24 0.07L121.06 108.4z"/>
  <path fill="#171419" d="M60.83 67.05c0.41 0 0.84 0.03 1.27 0.1l29.26 4.65 45.7 7.23c4.55 0.72 8.4 5.19 8.4 9.76 0 1.96-0.7 3.73-1.98 4.99 -0.05 0.06-0.1 0.11-0.15 0.17l-5.06 5.24 -1.12 1.18c-0.32 0.25-0.64 0.47-0.95 0.64l-0.04 0.02 -1.42 0.57c-0.1 0.03-0.21 0.06-0.31 0.1l-13.28 5.55c-0.54-0.35-1.24-0.83-1.74-1.17 -1.67-1.13-2.21-1.5-2.6-1.61l-71.79-31.42 12.99-5.42C58.86 67.24 59.81 67.05 60.83 67.05M60.83 64.99c-1.31 0-2.55 0.25-3.65 0.74l-15.27 6.38c-0.48 0.2-0.73 0.73-0.59 1.23 0.13 0.45 0.54 0.75 0.99 0.75l73.96 32.36c0.12 0 4.53 3.09 4.72 3.09l0 0 14.25-5.95c0.06-0.01 0.17-0.04 0.22-0.07l1.54-0.62c0.04-0.02 0.15-0.08 0.17-0.08 0.45-0.25 0.88-0.54 1.31-0.88 0.04-0.03 0.1-0.09 0.13-0.12l1.16-1.22 5.1-5.28c0.02-0.03 0.05-0.05 0.07-0.08 1.67-1.66 2.58-3.94 2.58-6.45 0-5.61-4.54-10.9-10.13-11.79l-45.7-7.22 -29.26-4.65C61.89 65.03 61.35 64.99 60.83 64.99"/>
  <path fill="#171419" d="M118.07 110.05c-0.24 0-0.47-0.02-0.69-0.03l-1.25-0.2 -11.11-1.76 -12.12-1.93 -40.1-6.35c-0.09 0-0.19-0.01-0.28-0.04l-1.21-0.19c-0.1 0-0.2-0.02-0.3-0.05 -0.05-0.01-0.11-0.03-0.16-0.06 -1.67-0.47-3.2-1.46-4.32-2.82 -0.18-0.21-0.35-0.45-0.52-0.7l-6.36-8.6c-0.02-0.03-0.04-0.06-0.06-0.1 -1.61-2.1-2.5-4.62-2.5-7.1 0-0.53 0.04-1 0.12-1.44 0.01-0.14 0.05-0.37 0.1-0.6 0.02-0.13 0.06-0.32 0.13-0.52 0.02-0.12 0.06-0.23 0.09-0.32 0.03-0.12 0.09-0.32 0.18-0.53 0.06-0.19 0.19-0.49 0.33-0.76 0.12-0.27 0.29-0.57 0.47-0.85 0 0 0.03-0.05 0.05-0.08l0 0c0.38-0.57 0.78-1.05 1.23-1.47 0.22-0.2 0.46-0.41 0.69-0.6 0.06-0.05 0.13-0.09 0.2-0.13 0 0 3.49-1.47 3.49-1.47 0.06-0.02 0.11-0.04 0.17-0.05 0.04-0.01 0.13-0.03 0.13-0.03 0.48-0.07 0.97-0.11 1.46-0.11 0.52 0 1.06 0.04 1.6 0.12L65.4 74.1l11.38 1.82 45.7 7.23c5.59 0.89 10.13 6.17 10.13 11.79 0 2.51-0.92 4.8-2.58 6.45 -0.02 0.03-0.05 0.06-0.07 0.09l-5.1 5.28 -1.15 1.21c-0.03 0.03-0.09 0.1-0.13 0.13 -0.71 0.57-1.47 1.02-2.27 1.33C120.32 109.83 119.23 110.05 118.07 110.05"/>
  <path fill="#FFFFFF" d="M87.08 121.24c0.16-0.11 0.31-0.22 0.46-0.35 0.04-0.03 0.07-0.06 0.1-0.09l1.09-1.15 5.01-5.19c0.03-0.04 0.07-0.07 0.1-0.11 1.52-1.45 2.36-3.52 2.36-5.8 0-5.13-4.15-9.96-9.26-10.77l-45.7-7.23 -11.38-1.81 -17.87-2.83c-0.15-0.02-0.31-0.03-0.47-0.03 -0.61 0-1.31 0.13-2.04 0.27 -0.34 0.06-0.55 0.11-0.73 0.13l15.76-6.76c0.99-0.44 2.08-0.67 3.25-0.67 0.47 0 0.96 0.04 1.44 0.12l17.87 2.83L58.43 83.6l45.7 7.23c5.11 0.81 9.26 5.65 9.26 10.78 0 2.23-0.81 4.26-2.28 5.72 -0.03 0.03-0.06 0.06-0.08 0.09l-5.1 5.29 -1.16 1.23c-0.42 0.34-0.8 0.59-1.19 0.81l-0.08 0.04 -1.52 0.62c-0.07 0.01-0.16 0.05-0.23 0.07l-14.15 5.9C87.48 121.34 87.28 121.29 87.08 121.24"/>
  <path fill="#171419" d="M27.73 79.87c0.42 0 0.85 0.04 1.28 0.1l17.88 2.83 11.39 1.82 45.7 7.23c4.55 0.72 8.4 5.19 8.4 9.76 0 1.96-0.7 3.73-1.98 4.99 -0.04 0.05-0.1 0.1-0.14 0.16l-5.07 5.26 -1.11 1.16c-0.32 0.25-0.63 0.47-0.95 0.65l-0.03 0.01 -1.44 0.58c-0.1 0.02-0.2 0.06-0.3 0.1l-10.45 4.36 3.57-3.7c0.04-0.05 0.08-0.09 0.13-0.14 1.69-1.66 2.62-3.96 2.62-6.49 0-5.61-4.54-10.9-10.13-11.79l-45.7-7.23 -11.38-1.81L13.91 85.16l11.01-4.72C25.76 80.06 26.71 79.87 27.73 79.87M27.73 77.81c-1.31 0-2.54 0.25-3.65 0.75L8.32 85.32c-0.47 0.21-0.73 0.73-0.58 1.23 0.13 0.45 0.54 0.75 0.99 0.75 0.05 0 0.1 0 0.15-0.01 0.23-0.03 0.5-0.09 0.79-0.14 0.61-0.12 1.3-0.25 1.84-0.25 0.11 0 0.22 0.01 0.31 0.02l17.87 2.83 11.39 1.81 45.7 7.23c4.63 0.73 8.4 5.11 8.4 9.75 0 2-0.73 3.8-2.05 5.07 -0.04 0.04-0.08 0.08-0.11 0.13l-5.01 5.2 -1.09 1.15c-0.51 0.41-1.05 0.74-1.62 0.98l-0.12 0.05c-0.52 0.22-0.78 0.81-0.57 1.34 0.03 0.07 0.07 0.1 0.13 0.1 0.23 0 0.64-0.6 0.97-0.6 0.12 0 1.79 0.46 2.05 0.46 0.01 0 0.02 0 0.03 0l14.39-6c0.06-0.01 0.17-0.04 0.23-0.07l1.54-0.62c0.04-0.01 0.15-0.07 0.17-0.09 0.44-0.24 0.86-0.53 1.3-0.87 0.04-0.03 0.11-0.09 0.14-0.13l1.15-1.22 5.1-5.28c0.02-0.03 0.05-0.05 0.07-0.08 1.67-1.66 2.59-3.94 2.59-6.45 0-5.61-4.54-10.9-10.13-11.79l-45.7-7.23 -11.39-1.82 -17.87-2.83C28.79 77.86 28.25 77.81 27.73 77.81"/>
  <path fill="#171419" d="M84.98 122.87c-0.24 0-0.46-0.01-0.68-0.03l-12.37-1.96 -12.12-1.93c0 0-40.1-6.35-40.1-6.35 -0.09 0-0.18-0.01-0.27-0.04l-1.21-0.19c-0.1 0-0.19-0.02-0.29-0.05 -0.06-0.02-0.12-0.04-0.18-0.06 -1.66-0.47-3.2-1.46-4.32-2.82 -0.18-0.2-0.35-0.44-0.52-0.69l-6.36-8.61c-0.02-0.03-0.04-0.06-0.06-0.09 -1.61-2.12-2.51-4.63-2.51-7.1 0-0.53 0.04-1 0.12-1.44 0.01-0.15 0.05-0.37 0.1-0.6 0.02-0.12 0.05-0.32 0.13-0.53 0.02-0.09 0.04-0.18 0.08-0.28 0.06-0.21 0.12-0.39 0.21-0.59 0.04-0.17 0.17-0.46 0.32-0.74 0.13-0.27 0.3-0.57 0.48-0.86 0.01-0.02 0.06-0.08 0.06-0.08 0.37-0.56 0.78-1.04 1.23-1.46 0.23-0.21 0.46-0.42 0.7-0.6 0.06-0.05 0.13-0.09 0.2-0.12 0.04-0.02 0.08-0.04 0.11-0.06l3.38-1.42c0.05-0.02 0.09-0.03 0.14-0.05s0.1-0.02 0.15-0.04h0c0.48-0.07 0.97-0.11 1.47-0.11 0.53 0 1.06 0.04 1.6 0.13l17.88 2.83 11.39 1.81 45.7 7.23c5.59 0.89 10.13 6.18 10.13 11.79 0 2.51-0.92 4.8-2.58 6.45 -0.02 0.03-0.05 0.06-0.08 0.09l-5.1 5.28 -1.16 1.22c-0.03 0.03-0.09 0.1-0.13 0.12 -0.71 0.57-1.47 1.02-2.27 1.33C87.23 122.65 86.13 122.87 84.98 122.87"/>
  <polygon fill="#FFFFFF" points="31.82 56.55 62.61 49.48 111.12 57.06 90.13 75.61 "/>
  <path fill="#171419" d="M90.13 76.63c-0.1 0-0.21-0.02-0.32-0.05L31.5 57.51c-0.44-0.14-0.72-0.56-0.7-1.01 0.02-0.45 0.34-0.84 0.79-0.94l30.79-7.07c0.13-0.03 0.26-0.04 0.39-0.01l48.52 7.58c0.39 0.06 0.71 0.34 0.82 0.72 0.11 0.38-0.01 0.79-0.3 1.05L90.81 76.37C90.62 76.54 90.38 76.63 90.13 76.63L90.13 76.63zM35.62 56.72l54.27 17.74 18.93-16.73L62.64 50.51 35.62 56.72 35.62 56.72z"/>
  <polygon fill="#171419" points="89.34 91.19 22.66 80.06 31.37 56.82 80.93 64.36 80.95 64.36 "/>
  <path fill="#171419" d="M89.34 92.2c-0.05 0-0.11 0-0.17-0.01L22.49 81.07c-0.3-0.05-0.56-0.23-0.71-0.5s-0.18-0.58-0.07-0.86l8.71-23.24c0.17-0.45 0.64-0.73 1.11-0.65l49.56 7.54c0.45 0 0.7 0.28 0.83 0.7l8.39 26.83c0.11 0.34 0.03 0.71-0.2 0.98C89.91 92.08 89.63 92.2 89.34 92.2L89.34 92.2zM24.05 79.26l63.83 10.65 -7.7-24.64 -48.13-7.32L24.05 79.26 24.05 79.26z"/>
  <polygon fill="#FFFFFF" points="90.28 90.77 82.25 65.08 111.4 57.57 123.74 79.44 90.31 90.83 "/>
  <path fill="#171419" d="M89.75 92.09l-0.4-0.91 -8.39-26.82 30.95-7.98 13.32 23.63L89.75 92.09 89.75 92.09zM83.54 65.8l7.42 23.73 31.29-10.66L110.9 58.75 83.54 65.8 83.54 65.8z"/>
  <polygon fill="#171419" points="52.66 55.9 83.11 60.88 94.54 58.15 63.18 52.96 "/>
  <line fill="#FFFFFF" x1="58.07" y1="56" x2="81.76" y2="59.85"/>
  <path fill="#171419" d="M81.76 60.87c-0.05 0-0.11 0-0.16-0.01l-23.69-3.85c-0.56-0.09-0.93-0.61-0.84-1.17 0.09-0.56 0.62-0.93 1.17-0.84l23.69 3.85c0.56 0.09 0.93 0.61 0.84 1.17C82.68 60.52 82.25 60.87 81.76 60.87L81.76 60.87z"/>
  <polyline fill="#FFFFFF" points="54.03 55.71 91.15 61.73 80.93 64.36 45.46 57.93 48.19 54.91 "/>
  <path fill="#FFFFFF" d="M102.32 77.48c-0.2 0-0.41-0.06-0.58-0.18 -1.98-1.36-3.12-3.03-3.4-4.97 -0.47-3.25 1.72-5.98 1.81-6.09 0.16-0.2 0.39-0.33 0.64-0.36l72.2-10.81c0.27-0.04 0.54 0.03 0.76 0.19 0.22 0.16 0.36 0.4 0.4 0.67l1.38 9.59c0.08 0.56-0.3 1.07-0.86 1.15l-72.2 10.81C102.42 77.48 102.37 77.48 102.32 77.48L102.32 77.48zM101.52 67.82c-0.45 0.67-1.43 2.39-1.16 4.23 0.19 1.25 0.93 2.38 2.22 3.35l70.79-10.59 -1.09-7.57L101.52 67.82 101.52 67.82z"/>
  <path fill="#FFFFFF" d="M9.1 91.87c0 2.19 1.42 3.97 3.18 3.97 1.75 0 3.17-1.78 3.17-3.97 0-2.19-1.42-3.97-3.17-3.97C10.52 87.9 9.1 89.67 9.1 91.87"/>
  <path fill="#FFFFFF" d="M32.02 100.23c0 3.79-2.45 6.87-5.49 6.87 -3.04 0-5.49-3.08-5.49-6.87 0-1.02 0.17-1.98 0.49-2.84l10.41 1.73C31.99 99.48 32.02 99.85 32.02 100.23"/>
  <path fill="#FFFFFF" d="M81.24 107.9c0 3.8-2.47 6.87-5.5 6.87s-5.49-3.08-5.49-6.87c0-0.85 0.12-1.67 0.36-2.41l10.61 1.75C81.23 107.45 81.24 107.68 81.24 107.9"/>
  <path fill="#FFFFFF" d="M64.7 105.2c0 3.79-2.47 6.87-5.5 6.87s-5.49-3.08-5.49-6.87c0-0.86 0.12-1.67 0.36-2.43l10.61 1.74C64.69 104.73 64.7 104.96 64.7 105.2"/>
  <path fill="#FFFFFF" d="M48.31 102.7c0 3.8-2.47 6.87-5.51 6.87 -3.04 0-5.49-3.08-5.49-6.87 0-0.94 0.15-1.83 0.41-2.64l10.53 1.74C48.3 102.09 48.31 102.4 48.31 102.7"/>
  <path fill="#FFFFFF" d="M87.3 104.43c0 2.19 1.42 3.97 3.17 3.97 1.76 0 3.18-1.77 3.18-3.97 0-2.19-1.42-3.97-3.18-3.97C88.72 100.46 87.3 102.24 87.3 104.43"/>
  <path fill="#FFFFFF" d="M84.57 58.61c-2.75-10.19-0.35-22.12 5.56-30.95 -7.39-1.48-14.77-2.96-22.15-4.44 -5.97 8.67-8.25 21.45-5.7 31.62C69.78 56.42 77.05 57.04 84.57 58.61"/>
  <path fill="#171419" d="M85.99 59.95l-1.62-0.34c-3.72-0.78-7.46-1.34-11.08-1.87 -3.65-0.54-7.43-1.1-11.22-1.9l-0.62-0.13 -0.16-0.62c-2.63-10.5-0.28-23.54 5.85-32.45l0.38-0.55 24.31 4.88 -0.85 1.26c-5.96 8.9-8.04 20.44-5.42 30.12L85.99 59.95 85.99 59.95zM63.11 53.97c3.53 0.72 7.06 1.24 10.48 1.75 3.14 0.47 6.37 0.95 9.62 1.58 -2.05-9.42-0.08-20.24 5.26-28.93l-20.02-4.02C63.02 32.6 60.91 44.33 63.11 53.97L63.11 53.97z"/>
  <path fill="#171419" d="M71.93 52.32c-0.09-0.88-0.18-2.08-0.21-2.95 -1.26-0.46-2.57-1.38-3.32-2.3 0.18-0.52 0.37-1.04 0.58-1.56 0.73 0.89 1.84 1.78 3.05 2.2 1.53 0.54 2.55-0.17 2.65-1.65 0.1-1.42-0.6-2.59-2.02-3.91 -1.95-1.78-3.02-3.43-2.35-5.59 0.65-2.06 2.52-3.14 4.5-2.83 0.34-0.81 0.72-1.6 1.13-2.39 1.31 0.25 0.52 0.11 1.31 0.25 -0.38 0.76-0.83 1.71-1.16 2.49 1.18 0.48 1.84 1.17 2.27 1.79 -0.37 0.48-0.73 0.96-1.07 1.44 -0.33-0.45-0.97-1.29-2.26-1.76 -1.55-0.56-2.56 0.35-2.87 1.34 -0.4 1.29 0.2 2.22 1.79 3.78 1.92 1.83 2.77 3.55 2.61 5.86 -0.14 2.05-1.23 3.57-3.45 3.23 0.03 0.9 0.13 1.98 0.23 2.89L71.93 52.32z"/>
  <path fill="#171419" d="M74.18 53.63l-2.95-0.71 -0.06-0.53c-0.08-0.74-0.15-1.7-0.19-2.52 -1.22-0.55-2.43-1.43-3.17-2.34l-0.26-0.32 0.14-0.4c0.18-0.53 0.38-1.06 0.59-1.59l0.47-1.19 0.82 0.99c0.73 0.9 1.75 1.63 2.71 1.97 0.26 0.09 0.49 0.14 0.7 0.14 0.21 0 0.87 0 0.94-1.12 0.08-1.1-0.44-2.06-1.78-3.31 -1.75-1.6-3.42-3.61-2.56-6.37 0.68-2.14 2.56-3.49 4.75-3.41 0.29-0.65 0.6-1.3 0.93-1.93l0.26-0.5 2.86 0.54 -0.46 0.9c-0.27 0.54-0.58 1.18-0.85 1.78 0.78 0.43 1.41 1 1.91 1.73l0.31 0.45 -0.34 0.44c-0.36 0.47-0.72 0.94-1.06 1.41l-0.6 0.85 -0.62-0.84c-0.28-0.38-0.8-1.09-1.91-1.5 -1.02-0.37-1.7 0.24-1.89 0.86 -0.24 0.79-0.08 1.38 1.6 3.02 2.15 2.06 3 3.99 2.84 6.45 -0.16 2.37-1.46 3.88-3.41 3.98 0.06 0.79 0.13 1.56 0.18 2.01L74.18 53.63 74.18 53.63zM72.46 48.9l0.74 0.11c2.02 0.3 2.52-1.49 2.59-2.54 0.14-2-0.56-3.52-2.38-5.26 -1.43-1.4-2.56-2.7-1.99-4.55 0.51-1.62 2.15-2.44 3.85-1.83 0.9 0.33 1.53 0.81 1.96 1.25 0.06-0.07 0.11-0.14 0.16-0.22 -0.42-0.47-0.94-0.82-1.6-1.09l-0.55-0.22 -0.56-0.09c-1.68-0.25-3.15 0.68-3.67 2.32 -0.49 1.59 0.11 2.94 2.15 4.81 1.71 1.58 2.38 2.93 2.27 4.52 -0.13 1.96-1.7 2.99-3.65 2.31 -0.87-0.31-1.75-0.84-2.51-1.53 0 0 0 0 0 0.01 0.69 0.72 1.73 1.4 2.72 1.76L72.46 48.9 72.46 48.9z"/>
  <path fill="#FFFFFF" d="M85.92 56.33c-0.5 0-0.93-0.36-1.01-0.87 -0.03-0.19-0.69-4.68-0.36-8.41 0.05-0.56 0.55-0.97 1.1-0.92 0.56 0.05 0.98 0.54 0.93 1.1 -0.31 3.48 0.34 7.88 0.35 7.93 0.08 0.56-0.3 1.07-0.86 1.16C86.02 56.33 85.97 56.33 85.92 56.33L85.92 56.33z"/>
  <path fill="#FFFFFF" d="M59.68 53.5c-0.49 0-0.92-0.36-1-0.86 -0.02-0.16-0.62-3.88-0.47-5.68 0.05-0.56 0.56-0.97 1.1-0.93 0.56 0.05 0.98 0.54 0.93 1.1 -0.1 1.29 0.29 4.18 0.45 5.19 0.09 0.56-0.29 1.08-0.84 1.17C59.79 53.49 59.74 53.5 59.68 53.5L59.68 53.5z"/>
  <path fill="#C2112B" d="M75.21 150.41C33.74 150.41 0 116.68 0 75.21 0 33.74 33.74 0 75.21 0v11.73c-35.01 0-63.48 28.48-63.48 63.48 0 35 28.48 63.48 63.48 63.48V150.41L75.21 150.41z"/>
  <path fill="#171419" d="M102.32 76.47l72.2-10.8 -1.38-9.59 -72.2 10.81C100.94 66.88 96.73 73.24 102.32 76.47"/>
  <polygon fill="#C2112B" points="36.74 134.41 27.3 127.46 109.7 15.52 119.15 22.47 36.74 134.41 "/>
  <path fill="#FFFFFF" d="M170.27 68.47c-0.26 0-0.51-0.1-0.71-0.29 -3.79-3.7-3.14-12.09-3.11-12.44 0.05-0.56 0.56-0.96 1.1-0.93 0.56 0.05 0.98 0.54 0.93 1.1 -0.01 0.08-0.6 7.78 2.51 10.82 0.4 0.39 0.41 1.04 0.02 1.44C170.8 68.37 170.54 68.47 170.27 68.47L170.27 68.47z"/>
  <path fill="#171419" d="M173.21 60.7c0.59 3.26 0.01 6.08-1.27 6.32 -1.29 0.23-2.8-2.22-3.39-5.48 -0.58-3.25-0.01-6.08 1.28-6.31C171.11 55 172.63 57.45 173.21 60.7"/>
  <polygon fill="#171419" points="169.82 55.23 189.51 52.47 191.62 64.26 171.94 67.02 "/>
  <path fill="#171419" d="M191.73 58.31c0.59 3.26 0.02 6.08-1.27 6.31 -1.29 0.23-2.81-2.22-3.4-5.48s-0.01-6.08 1.28-6.31C189.63 52.6 191.15 55.05 191.73 58.31"/>
  <path fill="#FFFFFF" d="M190.29 65.35c-1.95 0-3.41-3.15-3.94-6.08 -0.3-1.66-0.32-3.28-0.06-4.56 0.41-2.02 1.38-2.49 1.92-2.59 0.1-0.02 0.2-0.03 0.3-0.03 1.96 0 3.4 3.15 3.92 6.08 0.59 3.28 0.14 6.79-1.85 7.15C190.49 65.34 190.39 65.35 190.29 65.35L190.29 65.35zM188.52 53.53c-0.28 0.05-0.62 0.52-0.81 1.46 -0.22 1.11-0.2 2.53 0.07 4.02 0.59 3.26 1.93 4.9 2.52 4.9l0.04 0c0.57-0.1 1.27-2.26 0.69-5.48C190.45 55.22 189.09 53.53 188.52 53.53L188.52 53.53z"/>
  <rect x="216.42" y="0.53" fill="#171419" width="10.15" height="53.09"/>
  <polygon fill="#171419" points="239.74 53.62 239.74 0.53 250.33 0.53 271.21 36.71 271.36 36.71 271.36 0.53 280.92 0.53 280.92 53.62 271.14 53.62 249.44 15.83 249.3 15.83 249.3 53.62 "/>
  <rect x="294.02" y="0.53" fill="#171419" width="10.15" height="53.09"/>
  <polygon fill="#171419" points="350.79 0.46 350.79 8.99 336.9 8.99 336.9 53.63 326.75 53.63 326.75 8.99 312.85 8.99 312.85 0.46 "/>
  <rect x="359.41" y="0.53" fill="#171419" width="10.15" height="53.09"/>
  <path fill="#171419" d="M393.17 33.77h12.35l-5.96-23.09h-0.14L393.17 33.77zM393.02 0.46h12.65l15.07 53.17h-10.07l-2.94-11.47h-16.76l-3.16 11.47h-10.08L393.02 0.46z"/>
  <polygon fill="#171419" points="457.07 0.46 457.07 8.99 443.18 8.99 443.18 53.63 433.03 53.63 433.03 8.99 419.13 8.99 419.13 0.46 "/>
  <rect x="465.69" y="0.53" fill="#171419" width="10.15" height="53.09"/>
  <polygon fill="#171419" points="483.78 0.53 493.78 0.53 503.19 39.65 503.34 39.65 513.19 0.53 523.2 0.53 509.15 53.63 497.83 53.63 "/>
  <polygon fill="#171419" points="530.12 53.62 530.12 0.53 565.27 0.53 565.27 9.06 540.27 9.06 540.27 21.71 558.43 21.71 558.43 30.24 540.27 30.24 540.27 45.09 566.08 45.09 566.08 53.62 "/>
  <path fill="#171419" d="M228.74 73.81c-0.64-1.95-2.01-3.33-4.19-3.33 -2.94 0-4.74 2.75-4.74 8.15 -0.06 5.4 1.54 8.15 4.86 8.15 1.98 0 3.2-0.7 4.51-3.42l4.09 1.09c-1.37 3.99-4.38 6.04-8.6 6.04 -5.88 0-9.28-4.31-9.28-11.85 0-7.54 3.39-11.85 9.28-11.85 4.42 0 6.98 1.99 8.06 6.08L228.74 73.81z"/>
  <path fill="#171419" d="M244.66 70.49c-3.61 0-5.28 2.75-5.28 8.15 -0.06 5.4 1.63 8.15 5.28 8.15 3.62 0 5.28-2.75 5.28-8.14C249.93 73.23 248.27 70.49 244.66 70.49M244.66 90.48c-6.3 0-9.69-4.31-9.69-11.85 0-7.54 3.39-11.85 9.7-11.85 6.3 0 9.69 4.32 9.69 11.86C254.35 86.17 250.96 90.48 244.66 90.48"/>
  <polygon fill="#171419" points="257.94 90.16 257.94 67.1 262.55 67.1 271.64 82.82 271.7 82.82 271.7 67.1 275.86 67.1 275.86 90.16 271.61 90.16 262.17 73.75 262.1 73.75 262.1 90.16 "/>
  <polygon fill="#171419" points="295.61 67.06 295.61 70.78 289.56 70.78 289.56 90.16 285.15 90.16 285.15 70.78 279.1 70.78 279.1 67.06 "/>
  <path fill="#171419" d="M303.17 77.19h3.27c3.46 0 4.51-1.08 4.51-3.26 0-2.17-1.31-3.26-3.74-3.26h-4.03V77.19zM298.76 90.16V67.1h9.22c5.25 0 7.36 3.04 7.39 6.84 0.03 2.84-1.41 5.14-4.22 5.94l5.09 10.28h-4.89l-4.35-9.39h-3.81v9.39H298.76z"/>
  <polygon fill="#171419" points="320.3 90.16 320.3 67.1 335.59 67.1 335.59 70.81 324.71 70.81 324.71 76.3 332.62 76.3 332.62 80.01 324.71 80.01 324.71 86.46 335.94 86.46 335.94 90.16 "/>
  <polygon fill="#171419" points="349.43 90.16 349.43 67.1 353.85 67.1 353.85 86.46 363.89 86.46 363.89 90.16 "/>
  <polygon fill="#171419" points="367.42 90.16 367.42 67.1 382.72 67.1 382.72 70.81 371.83 70.81 371.83 76.3 379.74 76.3 379.74 80.01 371.83 80.01 371.83 86.46 383.07 86.46 383.07 90.16 "/>
  <path fill="#171419" d="M408.35 73.81c-0.64-1.95-2.01-3.33-4.19-3.33 -2.94 0-4.74 2.75-4.74 8.15 -0.06 5.4 1.54 8.15 4.87 8.15 1.98 0 3.2-0.7 4.51-3.42l4.1 1.09c-1.38 3.99-4.39 6.04-8.6 6.04 -5.89 0-9.27-4.31-9.27-11.85 0-7.54 3.39-11.85 9.27-11.85 4.42 0 6.97 1.99 8.06 6.08L408.35 73.81z"/>
  <path fill="#171419" d="M424.27 70.49c-3.61 0-5.28 2.75-5.28 8.15 -0.06 5.4 1.63 8.15 5.28 8.15 3.62 0 5.28-2.75 5.28-8.14C429.54 73.23 427.88 70.49 424.27 70.49M424.27 90.48c-6.3 0-9.69-4.31-9.69-11.85 0-7.54 3.39-11.85 9.7-11.85 6.3 0 9.69 4.32 9.69 11.86C433.96 86.17 430.57 90.48 424.27 90.48"/>
  <polygon fill="#171419" points="437.56 90.16 437.56 67.1 443.76 67.1 448.21 83.2 448.27 83.2 452.76 67.1 459.02 67.1 459.02 90.16 455.18 90.16 455.18 72.02 455.12 72.02 449.94 90.16 446.58 90.16 441.46 72.02 441.4 72.02 441.4 90.16 "/>
  <polygon fill="#171419" points="464.22 90.16 464.22 67.1 470.43 67.1 474.87 83.2 474.94 83.2 479.42 67.1 485.69 67.1 485.69 90.16 481.85 90.16 481.85 72.02 481.78 72.02 476.6 90.16 473.24 90.16 468.13 72.02 468.06 72.02 468.06 90.16 "/>
  <polygon fill="#171419" points="490.98 90.16 490.98 67.1 506.27 67.1 506.27 70.81 495.4 70.81 495.4 76.3 503.3 76.3 503.3 80.01 495.4 80.01 495.4 86.46 506.63 86.46 506.63 90.16 "/>
  <path fill="#171419" d="M514.77 77.19h3.26c3.46 0 4.52-1.08 4.52-3.26 0-2.17-1.31-3.26-3.75-3.26h-4.03V77.19zM510.35 90.16V67.1h9.22c5.24 0 7.35 3.04 7.39 6.84 0.03 2.84-1.41 5.14-4.22 5.94l5.08 10.28h-4.89l-4.35-9.39h-3.8v9.39H510.35z"/>
  <path fill="#171419" d="M543.5 73.81c-0.64-1.95-2.02-3.33-4.19-3.33 -2.95 0-4.74 2.75-4.74 8.15 -0.06 5.4 1.54 8.15 4.86 8.15 1.98 0 3.2-0.7 4.51-3.42l4.09 1.09c-1.37 3.99-4.38 6.04-8.6 6.04 -5.89 0-9.28-4.31-9.28-11.85 0-7.54 3.39-11.85 9.28-11.85 4.42 0 6.98 1.99 8.06 6.08L543.5 73.81z"/>
  <polygon fill="#171419" points="551.45 90.16 551.45 67.1 566.74 67.1 566.74 70.81 555.87 70.81 555.87 76.3 563.77 76.3 563.77 80.01 555.87 80.01 555.87 86.46 567.1 86.46 567.1 90.16 "/>
  <path fill="#171419" d="M224.93 142.25h5.96c10.23 0 12.63-7.51 12.63-15.86 0-8.34-2.4-15.84-12.63-15.84h-5.96V142.25zM215.99 103.04h15.48c12.37 0 20.92 6.86 20.98 23.35 -0.06 16.51-8.61 23.37-20.98 23.37h-15.48V103.04z"/>
  <polygon fill="#171419" points="259.58 149.76 259.58 103.04 290.54 103.04 290.54 110.55 268.52 110.55 268.52 121.67 284.52 121.67 284.52 129.17 268.52 129.17 268.52 142.25 291.25 142.25 291.25 149.76 "/>
  <path fill="#171419" d="M343.58 116.5c-2.13-4.65-4.73-6.59-9.39-6.59 -6.61 0-9.85 6.59-9.85 16.94 0 9.84 3.69 16.06 9.91 16.06 5.83 0 9.59-3.88 9.78-9.26h-8.87v-7.5h17.49v23.63h-6.48v-4.79c-3.75 4.14-7.26 5.44-12.18 5.44 -12.7 0-18.59-10.11-18.59-23.31 0-11.9 4.53-24.71 19.5-24.71 9.32 0 14.76 5.05 16.97 11.91L343.58 116.5z"/>
  <path fill="#171419" d="M389.05 103.04h8.94v29.23c0 13.67-8.42 18.14-17.94 18.14 -9.52 0-17.94-4.47-17.94-18.14v-29.23h8.94v29.62c0 7.58 2.98 10.23 9 10.23 6.03 0 9.01-2.65 9.01-10.23V103.04z"/>
  <polygon fill="#171419" points="408.86 149.76 408.86 103.04 439.83 103.04 439.83 110.55 417.8 110.55 417.8 121.67 433.8 121.67 433.8 129.17 417.8 129.17 417.8 142.25 440.54 142.25 440.54 149.76 "/>
  <path fill="#171419" d="M456.99 123.48h6.6c7 0 9.13-2.2 9.13-6.59 0-4.4-2.66-6.6-7.58-6.6h-8.16V123.48zM448.05 149.76V103.04h18.66c10.62 0 14.9 6.15 14.97 13.85 0.06 5.75-2.85 10.41-8.55 12.03l10.3 20.85h-9.91l-8.81-19.04h-7.7v19.04H448.05z"/>
  <path fill="#171419" d="M500.19 123.48h6.61c7 0 9.13-2.2 9.13-6.59 0-4.4-2.66-6.6-7.58-6.6h-8.16V123.48zM491.25 149.76V103.04h18.65c10.63 0 14.9 6.15 14.97 13.85 0.06 5.75-2.85 10.41-8.55 12.03l10.3 20.85h-9.91l-8.81-19.04h-7.71v19.04H491.25z"/>
  <polygon fill="#171419" points="534.83 149.76 534.83 103.04 565.8 103.04 565.8 110.55 543.77 110.55 543.77 121.67 559.77 121.67 559.77 129.17 543.77 129.17 543.77 142.25 566.51 142.25 566.51 149.76 "/>
</svg>
