<svg xmlns="http://www.w3.org/2000/svg" xmlns:xlink="http://www.w3.org/1999/xlink" version="1.1" id="Layer_1" x="0" y="0" width="773.37" height="161.52" viewBox="0 0 773.37 161.52" enable-background="new 0 0 773.368 161.521" xml:space="preserve">
  <polygon fill="#171419" points="234.38 10.36 219.34 30.4 219.34 10.36 210.73 10.36 210.73 55.43 219.34 55.43 219.34 41.89 225.64 34.02 236.81 55.43 246.34 55.43 231.51 27.28 244.29 10.36 "/>
  <path fill="#171419" d="M260.9 30.09h6.35c6.73 0 8.79-2.12 8.79-6.36 0-4.24-2.56-6.36-7.29-6.36h-7.85V30.09zM252.3 55.43V10.36h17.95c10.22 0 14.33 5.93 14.39 13.36 0.06 5.56-2.74 10.05-8.22 11.61l9.91 20.1h-9.54l-8.47-18.34h-7.42v18.35H252.3z"/>
  <rect x="295.04" y="10.36" fill="#171419" width="8.6" height="45.07"/>
  <polygon fill="#171419" points="314.97 55.43 314.97 10.36 344.76 10.36 344.76 17.6 323.57 17.6 323.57 28.34 338.96 28.34 338.96 35.58 323.57 35.58 323.57 48.19 345.44 48.19 345.44 55.43 "/>
  <path fill="#171419" d="M376.78 23.35c-2.06-4.49-4.55-6.36-9.03-6.36 -6.35 0-9.47 6.36-9.47 16.35 0 9.49 3.55 15.48 9.53 15.48 5.61 0 9.22-3.74 9.41-8.93h-8.53v-7.24h16.83v22.78h-6.24v-4.62c-3.61 3.99-6.98 5.24-11.71 5.24 -12.21 0-17.88-9.74-17.88-22.47 0-11.48 4.36-23.84 18.76-23.84 8.97 0 14.21 4.87 16.33 11.49L376.78 23.35z"/>
  <path fill="#171419" d="M415.52 22.35c-1.31-3.49-3.99-5.87-8.05-5.87 -3.74 0-6.43 1.5-6.43 5 0 7.74 23.22 6.12 23.22 20.72 0 9.24-5.81 13.86-15.79 13.86 -7.36 0-14.29-4.12-16.85-10.67l7.11-3.12c2.06 4.24 4.74 7.05 9.8 7.05 4.31 0 7.62-1.62 7.62-5.99 0-8.86-23.22-7.11-23.22-20.97 0-8.05 6.74-12.61 14.54-12.61 7.24 0 13.23 3.62 15.92 10.17L415.52 22.35z"/>
  <path fill="#171419" d="M456.52 23.35c-2.06-4.49-4.56-6.36-9.05-6.36 -6.37 0-9.49 6.36-9.49 16.35 0 9.49 3.56 15.48 9.55 15.48 5.62 0 9.24-3.74 9.42-8.93h-8.55v-7.24h16.85v22.78h-6.24v-4.62c-3.62 3.99-6.99 5.24-11.73 5.24 -12.23 0-17.92-9.74-17.92-22.47 0-11.48 4.37-23.84 18.79-23.84 8.98 0 14.23 4.87 16.35 11.49L456.52 23.35z"/>
  <polygon fill="#171419" points="474.36 55.43 474.36 10.36 504.2 10.36 504.2 17.6 482.98 17.6 482.98 28.34 498.39 28.34 498.39 35.58 482.98 35.58 482.98 48.19 504.88 48.19 504.88 55.43 "/>
  <path fill="#171419" d="M533.4 22.35c-1.31-3.49-4-5.87-8.06-5.87 -3.74 0-6.43 1.5-6.43 5 0 7.74 23.22 6.12 23.22 20.72 0 9.24-5.81 13.86-15.79 13.86 -7.36 0-14.29-4.12-16.85-10.67l7.11-3.12c2.06 4.24 4.74 7.05 9.79 7.05 4.31 0 7.62-1.62 7.62-5.99 0-8.86-23.22-7.11-23.22-20.97 0-8.05 6.74-12.61 14.54-12.61 7.24 0 13.23 3.62 15.92 10.17L533.4 22.35z"/>
  <path fill="#171419" d="M573.27 23.47c-1.25-3.8-3.93-6.49-8.18-6.49 -5.74 0-9.24 5.37-9.24 15.91 -0.13 10.55 2.99 15.92 9.49 15.92 3.87 0 6.24-1.37 8.8-6.67l7.99 2.12c-2.68 7.81-8.55 11.8-16.79 11.8 -11.48 0-18.1-8.43-18.1-23.16 0-14.73 6.62-23.16 18.1-23.16 8.61 0 13.6 3.87 15.73 11.86L573.27 23.47z"/>
  <polygon fill="#171419" points="588.74 55.43 588.74 10.36 597.35 10.36 597.35 28.34 614.71 28.34 614.71 10.36 623.32 10.36 623.32 55.43 614.71 55.43 614.71 36.08 597.35 36.08 597.35 55.43 "/>
  <path fill="#171419" d="M657.33 7.24h-7.49V0h7.49V7.24zM642.47 38.58h10.49l-5.05-19.6h-0.13L642.47 38.58zM645.47 7.24h-7.49V0h7.49V7.24zM642.34 10.3h10.74l12.8 45.13h-8.55l-2.5-9.74h-14.23l-2.68 9.74h-8.55L642.34 10.3z"/>
  <polygon fill="#171419" points="671.55 55.43 671.55 10.36 700.26 10.36 700.26 17.6 680.16 17.6 680.16 28.34 695.2 28.34 695.2 35.58 680.16 35.58 680.16 55.43 "/>
  <polygon fill="#171419" points="734.83 10.3 734.83 17.54 723.03 17.54 723.03 55.43 714.42 55.43 714.42 17.54 702.63 17.54 702.63 10.3 "/>
  <polygon fill="#171419" points="741.32 55.43 741.32 10.36 771.15 10.36 771.15 17.6 749.93 17.6 749.93 28.34 765.35 28.34 765.35 35.58 749.93 35.58 749.93 48.19 771.84 48.19 771.84 55.43 "/>
  <rect x="211.12" y="75.92" fill="#171419" width="16.36" height="85.6"/>
  <polygon fill="#171419" points="299.55 75.92 299.55 134.26 299.32 134.26 265.71 75.92 248.67 75.92 248.67 161.52 264.05 161.52 264.05 100.59 264.28 100.59 299.2 161.52 314.94 161.52 314.94 75.92 "/>
  <rect x="336.01" y="75.92" fill="#171419" width="16.33" height="85.6"/>
  <polygon fill="#171419" points="366.31 75.8 366.31 89.56 388.69 89.56 388.69 161.52 405.05 161.52 405.05 89.56 427.46 89.56 427.46 75.8 "/>
  <rect x="441.33" y="75.92" fill="#171419" width="16.36" height="85.6"/>
  <path fill="#171419" d="M505.83 92.29h0.24l9.6 37.23h-19.91L505.83 92.29zM495.52 75.8l-24.65 85.72H487.1l5.1-18.49h27.02l4.74 18.49h16.24l-24.31-85.72H495.52z"/>
  <polygon fill="#171419" points="537.61 75.8 537.61 89.56 560.02 89.56 560.02 161.52 576.38 161.52 576.38 89.56 598.79 89.56 598.79 75.8 "/>
  <rect x="612.66" y="75.92" fill="#171419" width="16.36" height="85.6"/>
  <polygon fill="#171419" points="689.25 75.92 673.37 139 673.13 139 657.96 75.92 641.83 75.92 664.47 161.52 682.73 161.52 705.37 75.92 "/>
  <polygon fill="#171419" points="716.53 75.92 716.53 161.52 774.5 161.52 774.5 147.77 732.88 147.77 732.88 123.82 762.17 123.82 762.17 110.08 732.88 110.08 732.88 89.68 773.2 89.68 773.2 75.92 "/>
  <path fill="#C2112B" d="M75.21 161.52v-11.73c35 0 63.48-28.48 63.48-63.48 0-35-28.48-63.48-63.48-63.48V11.11c41.47 0 75.21 33.74 75.21 75.2C150.42 127.78 116.68 161.52 75.21 161.52L75.21 161.52z"/>
  <path fill="#FFFFFF" d="M121.06 119.51c-0.53-0.34-1.51-1.01-2.21-1.48 -1.51-1.02-1.98-1.35-2.25-1.45L42.72 84.25c-0.13-0.06-0.27-0.09-0.41-0.09l15.27-6.37c0.99-0.44 2.07-0.66 3.25-0.66 0.46 0 0.95 0.04 1.44 0.11l29.25 4.65 45.71 7.23c5.11 0.81 9.26 5.65 9.26 10.77 0 2.23-0.81 4.26-2.27 5.72 -0.04 0.04-0.08 0.08-0.11 0.13l-5.08 5.26 -1.16 1.22c-0.4 0.33-0.78 0.59-1.19 0.81l-1.6 0.65c-0.07 0.01-0.16 0.05-0.24 0.07L121.06 119.51z"/>
  <path fill="#171419" d="M60.83 78.16c0.41 0 0.84 0.03 1.27 0.1l29.26 4.65 45.7 7.23c4.55 0.72 8.4 5.19 8.4 9.76 0 1.96-0.7 3.73-1.98 4.99 -0.05 0.06-0.1 0.11-0.15 0.17l-5.06 5.24 -1.12 1.18c-0.32 0.25-0.64 0.47-0.95 0.64l-0.04 0.02 -1.42 0.57c-0.1 0.03-0.21 0.06-0.31 0.1l-13.28 5.55c-0.54-0.35-1.24-0.83-1.74-1.17 -1.67-1.13-2.21-1.5-2.6-1.61L45.04 84.14l12.99-5.42C58.86 78.35 59.8 78.16 60.83 78.16M60.83 76.1c-1.31 0-2.55 0.25-3.65 0.74l-15.27 6.38c-0.48 0.2-0.73 0.73-0.59 1.23 0.13 0.45 0.54 0.75 0.99 0.75l73.96 32.36c0.12 0 4.53 3.09 4.72 3.09l0 0 14.25-5.95c0.06-0.01 0.17-0.04 0.22-0.07l1.54-0.62c0.04-0.02 0.15-0.08 0.17-0.08 0.45-0.25 0.88-0.54 1.31-0.88 0.04-0.03 0.1-0.09 0.13-0.12l1.16-1.22 5.1-5.28c0.02-0.03 0.05-0.05 0.07-0.08 1.67-1.66 2.58-3.94 2.58-6.45 0-5.61-4.54-10.9-10.13-11.79l-45.7-7.22 -29.26-4.65C61.89 76.14 61.35 76.1 60.83 76.1"/>
  <path fill="#171419" d="M118.07 121.15c-0.24 0-0.47-0.02-0.69-0.03l-1.25-0.2 -11.11-1.76 -12.12-1.93 -40.1-6.35c-0.09 0-0.19-0.01-0.28-0.04l-1.21-0.19c-0.1 0-0.2-0.02-0.3-0.05 -0.05-0.01-0.11-0.03-0.16-0.06 -1.67-0.47-3.2-1.46-4.32-2.82 -0.18-0.21-0.35-0.45-0.52-0.7l-6.36-8.6c-0.02-0.03-0.04-0.06-0.06-0.1 -1.61-2.1-2.5-4.62-2.5-7.1 0-0.53 0.04-1 0.12-1.44 0.01-0.14 0.05-0.37 0.1-0.6 0.02-0.13 0.06-0.32 0.13-0.52 0.02-0.12 0.06-0.23 0.09-0.32 0.03-0.12 0.09-0.32 0.18-0.53 0.06-0.19 0.19-0.49 0.33-0.76 0.12-0.27 0.29-0.57 0.47-0.85 0 0 0.03-0.05 0.05-0.08l0 0c0.38-0.57 0.78-1.05 1.23-1.47 0.22-0.2 0.46-0.41 0.69-0.6 0.06-0.05 0.13-0.09 0.2-0.13 0 0 3.49-1.47 3.49-1.47 0.06-0.02 0.11-0.04 0.17-0.05 0.04-0.01 0.13-0.03 0.13-0.03 0.48-0.07 0.97-0.11 1.46-0.11 0.52 0 1.06 0.04 1.6 0.12l17.88 2.83 11.38 1.82 45.7 7.23c5.59 0.89 10.13 6.17 10.13 11.79 0 2.51-0.92 4.8-2.58 6.45 -0.02 0.03-0.05 0.06-0.07 0.09l-5.1 5.28 -1.15 1.21c-0.03 0.03-0.09 0.1-0.13 0.13 -0.71 0.57-1.47 1.02-2.27 1.33C120.32 120.94 119.23 121.15 118.07 121.15"/>
  <path fill="#FFFFFF" d="M87.08 132.35c0.16-0.11 0.31-0.22 0.46-0.35 0.04-0.03 0.07-0.06 0.1-0.09l1.09-1.15 5.01-5.19c0.03-0.04 0.07-0.07 0.1-0.11 1.52-1.45 2.36-3.52 2.36-5.8 0-5.13-4.15-9.96-9.26-10.77l-45.7-7.23 -11.38-1.81L11.97 97c-0.15-0.02-0.31-0.03-0.47-0.03 -0.61 0-1.31 0.13-2.04 0.27 -0.34 0.06-0.55 0.11-0.73 0.13l15.76-6.76c0.99-0.44 2.08-0.67 3.25-0.67 0.47 0 0.96 0.04 1.44 0.12l17.87 2.83 11.39 1.82 45.7 7.23c5.11 0.81 9.26 5.65 9.26 10.78 0 2.23-0.81 4.26-2.28 5.72 -0.03 0.03-0.06 0.06-0.08 0.09l-5.1 5.29 -1.16 1.23c-0.42 0.34-0.8 0.59-1.19 0.81l-0.08 0.04 -1.52 0.62c-0.07 0.01-0.16 0.05-0.23 0.07l-14.15 5.9C87.48 132.45 87.28 132.4 87.08 132.35"/>
  <path fill="#171419" d="M27.73 90.98c0.42 0 0.85 0.04 1.28 0.1l17.88 2.83 11.39 1.82 45.7 7.23c4.55 0.72 8.4 5.19 8.4 9.76 0 1.96-0.7 3.73-1.98 4.99 -0.04 0.05-0.1 0.1-0.14 0.16l-5.07 5.26 -1.11 1.16c-0.32 0.25-0.63 0.47-0.95 0.65l-0.03 0.01 -1.44 0.58c-0.1 0.02-0.2 0.06-0.3 0.1l-10.45 4.36 3.57-3.7c0.04-0.05 0.08-0.09 0.13-0.14 1.69-1.66 2.62-3.96 2.62-6.49 0-5.61-4.54-10.9-10.13-11.79l-45.7-7.23L30.01 98.82 13.91 96.27l11.01-4.72C25.76 91.17 26.71 90.98 27.73 90.98M27.73 88.92c-1.31 0-2.54 0.25-3.65 0.75L8.32 96.43c-0.47 0.21-0.73 0.73-0.58 1.23 0.13 0.45 0.54 0.75 0.99 0.75 0.05 0 0.1 0 0.15-0.01 0.23-0.03 0.5-0.09 0.79-0.14C10.27 98.13 10.96 98 11.5 98c0.11 0 0.22 0.01 0.31 0.02l17.87 2.83 11.39 1.81 45.7 7.23c4.63 0.73 8.4 5.11 8.4 9.75 0 2-0.73 3.8-2.05 5.07 -0.04 0.04-0.08 0.08-0.11 0.13l-5.01 5.2 -1.09 1.15c-0.51 0.41-1.05 0.74-1.62 0.98l-0.12 0.05c-0.52 0.22-0.78 0.81-0.57 1.34 0.03 0.07 0.07 0.1 0.13 0.1 0.23 0 0.64-0.6 0.97-0.6 0.12 0 1.79 0.46 2.05 0.46 0.01 0 0.02 0 0.03 0l14.39-6c0.06-0.01 0.17-0.04 0.23-0.07l1.54-0.62c0.04-0.01 0.15-0.07 0.17-0.09 0.44-0.24 0.86-0.53 1.3-0.87 0.04-0.03 0.11-0.09 0.14-0.13l1.15-1.22 5.1-5.28c0.02-0.03 0.05-0.05 0.07-0.08 1.67-1.66 2.59-3.94 2.59-6.45 0-5.61-4.54-10.9-10.13-11.79l-45.7-7.23 -11.39-1.82 -17.87-2.83C28.79 88.97 28.25 88.92 27.73 88.92"/>
  <path fill="#171419" d="M84.98 133.98c-0.24 0-0.46-0.01-0.68-0.03l-12.37-1.96 -12.12-1.93c0 0-40.1-6.35-40.1-6.35 -0.09 0-0.18-0.01-0.27-0.04l-1.21-0.19c-0.1 0-0.19-0.02-0.29-0.05 -0.06-0.02-0.12-0.04-0.18-0.06 -1.66-0.47-3.2-1.46-4.32-2.82 -0.18-0.2-0.35-0.44-0.52-0.69l-6.36-8.61c-0.02-0.03-0.04-0.06-0.06-0.09 -1.61-2.12-2.51-4.63-2.51-7.1 0-0.53 0.04-1 0.12-1.44 0.01-0.15 0.05-0.37 0.1-0.6 0.02-0.12 0.05-0.32 0.13-0.53 0.02-0.09 0.04-0.18 0.08-0.28 0.06-0.21 0.12-0.39 0.21-0.59 0.04-0.17 0.17-0.46 0.32-0.74 0.13-0.27 0.3-0.57 0.48-0.86 0.01-0.02 0.06-0.08 0.06-0.08 0.37-0.56 0.78-1.04 1.23-1.46 0.23-0.21 0.46-0.42 0.7-0.6 0.06-0.05 0.13-0.09 0.2-0.12 0.04-0.02 0.08-0.04 0.11-0.06l3.38-1.42c0.05-0.02 0.09-0.03 0.14-0.05s0.1-0.02 0.15-0.04h0c0.48-0.07 0.97-0.11 1.47-0.11 0.53 0 1.06 0.04 1.6 0.13l17.88 2.83 11.39 1.81 45.7 7.23c5.59 0.89 10.13 6.18 10.13 11.79 0 2.51-0.92 4.8-2.58 6.45 -0.02 0.03-0.05 0.06-0.08 0.09l-5.1 5.28 -1.16 1.22c-0.03 0.03-0.09 0.1-0.13 0.12 -0.71 0.57-1.47 1.02-2.27 1.33C87.22 133.76 86.13 133.98 84.98 133.98"/>
  <polygon fill="#FFFFFF" points="31.82 67.66 62.61 60.59 111.12 68.17 90.13 86.72 "/>
  <path fill="#171419" d="M90.13 87.74c-0.1 0-0.21-0.02-0.32-0.05L31.5 68.62c-0.44-0.14-0.72-0.56-0.7-1.01 0.02-0.45 0.34-0.84 0.79-0.94l30.79-7.07c0.13-0.03 0.26-0.04 0.39-0.01l48.52 7.58c0.39 0.06 0.71 0.34 0.82 0.72 0.11 0.38-0.01 0.79-0.3 1.05L90.8 87.48C90.62 87.65 90.38 87.74 90.13 87.74L90.13 87.74zM35.62 67.83l54.27 17.74 18.93-16.73L62.64 61.62 35.62 67.83 35.62 67.83z"/>
  <polygon fill="#171419" points="89.34 102.3 22.66 91.17 31.37 67.93 80.93 75.47 80.95 75.47 "/>
  <path fill="#171419" d="M89.34 103.31c-0.05 0-0.11 0-0.17-0.01L22.49 92.18c-0.3-0.05-0.56-0.23-0.71-0.5s-0.18-0.58-0.07-0.86l8.71-23.24c0.17-0.45 0.64-0.73 1.11-0.65l49.56 7.54c0.45 0 0.7 0.28 0.83 0.7l8.39 26.83c0.11 0.34 0.03 0.71-0.2 0.98C89.91 103.19 89.63 103.31 89.34 103.31L89.34 103.31zM24.04 90.37l63.83 10.65 -7.7-24.64 -48.13-7.32L24.04 90.37 24.04 90.37z"/>
  <polygon fill="#FFFFFF" points="90.28 101.88 82.25 76.19 111.4 68.68 123.74 90.55 90.31 101.94 "/>
  <path fill="#171419" d="M89.75 103.2l-0.4-0.91L80.96 75.48l30.95-7.98 13.32 23.63L89.75 103.2 89.75 103.2zM83.54 76.91l7.42 23.73 31.29-10.66L110.9 69.86 83.54 76.91 83.54 76.91z"/>
  <polygon fill="#171419" points="52.66 67.01 83.11 71.99 94.54 69.26 63.18 64.07 "/>
  <line fill="#FFFFFF" x1="58.07" y1="67.11" x2="81.76" y2="70.96"/>
  <path fill="#171419" d="M81.76 71.98c-0.05 0-0.11 0-0.16-0.01l-23.69-3.85c-0.56-0.09-0.93-0.61-0.84-1.17 0.09-0.56 0.62-0.93 1.17-0.84l23.69 3.85c0.56 0.09 0.93 0.61 0.84 1.17C82.68 71.63 82.25 71.98 81.76 71.98L81.76 71.98z"/>
  <polyline fill="#FFFFFF" points="54.03 66.82 91.15 72.84 80.93 75.47 45.46 69.04 48.19 66.02 "/>
  <path fill="#FFFFFF" d="M102.32 88.59c-0.2 0-0.41-0.06-0.58-0.18 -1.98-1.36-3.12-3.03-3.4-4.97 -0.47-3.25 1.72-5.98 1.81-6.09 0.16-0.2 0.39-0.33 0.64-0.36l72.2-10.81c0.27-0.04 0.54 0.03 0.76 0.19 0.22 0.16 0.36 0.4 0.4 0.67l1.38 9.59c0.08 0.56-0.3 1.07-0.86 1.15L102.47 88.58C102.42 88.59 102.37 88.59 102.32 88.59L102.32 88.59zM101.52 78.93c-0.45 0.67-1.43 2.39-1.16 4.23 0.19 1.25 0.93 2.38 2.22 3.35l70.79-10.59 -1.09-7.57L101.52 78.93 101.52 78.93z"/>
  <path fill="#FFFFFF" d="M9.1 102.98c0 2.19 1.42 3.97 3.18 3.97 1.75 0 3.17-1.78 3.17-3.97 0-2.19-1.42-3.97-3.17-3.97C10.52 99 9.1 100.78 9.1 102.98"/>
  <path fill="#FFFFFF" d="M32.02 111.34c0 3.79-2.45 6.87-5.49 6.87 -3.04 0-5.49-3.08-5.49-6.87 0-1.02 0.17-1.98 0.49-2.84l10.41 1.73C31.99 110.59 32.02 110.96 32.02 111.34"/>
  <path fill="#FFFFFF" d="M81.24 119.01c0 3.8-2.47 6.87-5.5 6.87s-5.49-3.08-5.49-6.87c0-0.85 0.12-1.67 0.36-2.41l10.61 1.75C81.23 118.56 81.24 118.79 81.24 119.01"/>
  <path fill="#FFFFFF" d="M64.7 116.31c0 3.79-2.47 6.87-5.5 6.87s-5.49-3.08-5.49-6.87c0-0.86 0.12-1.67 0.36-2.43l10.61 1.74C64.69 115.84 64.7 116.07 64.7 116.31"/>
  <path fill="#FFFFFF" d="M48.31 113.81c0 3.8-2.47 6.87-5.51 6.87 -3.04 0-5.49-3.08-5.49-6.87 0-0.94 0.15-1.83 0.41-2.64l10.53 1.74C48.3 113.2 48.31 113.51 48.31 113.81"/>
  <path fill="#FFFFFF" d="M87.3 115.54c0 2.19 1.42 3.97 3.17 3.97 1.76 0 3.18-1.77 3.18-3.97 0-2.19-1.42-3.97-3.18-3.97C88.71 111.57 87.3 113.35 87.3 115.54"/>
  <path fill="#FFFFFF" d="M84.57 69.72c-2.75-10.19-0.35-22.12 5.56-30.95 -7.39-1.48-14.77-2.96-22.15-4.44 -5.97 8.67-8.25 21.45-5.7 31.62C69.78 67.52 77.05 68.15 84.57 69.72"/>
  <path fill="#171419" d="M85.99 71.06l-1.62-0.34c-3.72-0.78-7.46-1.34-11.08-1.87 -3.65-0.54-7.43-1.1-11.22-1.9l-0.62-0.13 -0.16-0.62c-2.63-10.5-0.28-23.54 5.85-32.45l0.38-0.55 24.31 4.88 -0.85 1.26c-5.96 8.9-8.04 20.44-5.42 30.12L85.99 71.06 85.99 71.06zM63.11 65.08c3.53 0.72 7.06 1.24 10.48 1.75 3.14 0.47 6.37 0.95 9.62 1.58 -2.05-9.42-0.08-20.24 5.26-28.93l-20.02-4.02C63.02 43.71 60.91 55.44 63.11 65.08L63.11 65.08z"/>
  <path fill="#171419" d="M71.93 63.43c-0.09-0.88-0.18-2.08-0.21-2.95 -1.26-0.46-2.57-1.38-3.32-2.3 0.18-0.52 0.37-1.04 0.58-1.56 0.73 0.89 1.84 1.78 3.05 2.2 1.53 0.54 2.55-0.17 2.65-1.65 0.1-1.42-0.6-2.59-2.02-3.91 -1.95-1.78-3.02-3.43-2.35-5.59 0.65-2.06 2.52-3.14 4.5-2.83 0.34-0.81 0.72-1.6 1.13-2.39 1.31 0.25 0.52 0.11 1.31 0.25 -0.38 0.76-0.83 1.71-1.16 2.49 1.18 0.48 1.84 1.17 2.27 1.79 -0.37 0.48-0.73 0.96-1.07 1.44 -0.33-0.45-0.97-1.29-2.26-1.76 -1.55-0.56-2.56 0.35-2.87 1.34 -0.4 1.29 0.2 2.22 1.79 3.78 1.92 1.83 2.77 3.55 2.61 5.86 -0.14 2.05-1.23 3.57-3.45 3.23 0.03 0.9 0.13 1.98 0.23 2.89L71.93 63.43z"/>
  <path fill="#171419" d="M74.18 64.74l-2.95-0.71 -0.06-0.53c-0.08-0.74-0.15-1.7-0.19-2.52 -1.22-0.55-2.43-1.43-3.17-2.34l-0.26-0.32 0.14-0.4c0.18-0.53 0.38-1.06 0.59-1.59l0.47-1.19 0.82 0.99c0.73 0.9 1.75 1.63 2.71 1.97 0.26 0.09 0.49 0.14 0.7 0.14 0.21 0 0.87 0 0.94-1.12 0.08-1.1-0.44-2.06-1.78-3.31 -1.75-1.6-3.42-3.61-2.56-6.37 0.68-2.14 2.56-3.49 4.75-3.41 0.29-0.65 0.6-1.3 0.93-1.93l0.26-0.5 2.86 0.54 -0.46 0.9c-0.27 0.54-0.58 1.18-0.85 1.78 0.78 0.43 1.41 1 1.91 1.73l0.31 0.45 -0.34 0.44c-0.36 0.47-0.72 0.94-1.06 1.41l-0.6 0.85 -0.62-0.84c-0.28-0.38-0.8-1.09-1.91-1.5 -1.02-0.37-1.7 0.24-1.89 0.86 -0.24 0.79-0.08 1.38 1.6 3.02 2.15 2.06 3 3.99 2.84 6.45 -0.16 2.37-1.46 3.88-3.41 3.98 0.06 0.79 0.13 1.56 0.18 2.01L74.18 64.74 74.18 64.74zM72.46 60.01l0.74 0.11c2.02 0.3 2.52-1.49 2.59-2.54 0.14-2-0.56-3.52-2.38-5.26 -1.43-1.4-2.56-2.7-1.99-4.55 0.51-1.62 2.15-2.44 3.85-1.83 0.9 0.33 1.53 0.81 1.96 1.25 0.06-0.07 0.11-0.14 0.16-0.22 -0.42-0.47-0.94-0.82-1.6-1.09l-0.55-0.22 -0.56-0.09c-1.68-0.25-3.15 0.68-3.67 2.32 -0.49 1.59 0.11 2.94 2.15 4.81 1.71 1.58 2.38 2.93 2.27 4.52 -0.13 1.96-1.7 2.99-3.65 2.31 -0.87-0.31-1.75-0.84-2.51-1.53 0 0 0 0 0 0.01 0.69 0.72 1.73 1.4 2.72 1.76L72.46 60.01 72.46 60.01z"/>
  <path fill="#FFFFFF" d="M85.92 67.44c-0.5 0-0.93-0.36-1.01-0.87 -0.03-0.19-0.69-4.68-0.36-8.41 0.05-0.56 0.55-0.97 1.1-0.92 0.56 0.05 0.98 0.54 0.93 1.1 -0.31 3.48 0.34 7.88 0.35 7.93 0.08 0.56-0.3 1.07-0.86 1.16C86.02 67.44 85.97 67.44 85.92 67.44L85.92 67.44z"/>
  <path fill="#FFFFFF" d="M59.68 64.61c-0.49 0-0.92-0.36-1-0.86 -0.02-0.16-0.62-3.88-0.47-5.68 0.05-0.56 0.56-0.97 1.1-0.93 0.56 0.05 0.98 0.54 0.93 1.1 -0.1 1.29 0.29 4.18 0.45 5.19 0.09 0.56-0.29 1.08-0.84 1.17C59.79 64.6 59.74 64.61 59.68 64.61L59.68 64.61z"/>
  <path fill="#C2112B" d="M75.21 161.52C33.74 161.52 0 127.79 0 86.32S33.74 11.11 75.21 11.11v11.73c-35.01 0-63.48 28.48-63.48 63.48s28.48 63.48 63.48 63.48V161.52L75.21 161.52z"/>
  <path fill="#171419" d="M102.32 87.58l72.2-10.8 -1.38-9.59 -72.2 10.81C100.94 77.99 96.73 84.35 102.32 87.58"/>
  <polygon fill="#C2112B" points="36.74 145.52 27.3 138.56 109.7 26.63 119.14 33.58 36.74 145.52 "/>
  <path fill="#FFFFFF" d="M170.27 79.58c-0.26 0-0.51-0.1-0.71-0.29 -3.79-3.7-3.14-12.09-3.11-12.44 0.05-0.56 0.56-0.96 1.1-0.93 0.56 0.05 0.98 0.54 0.93 1.1 -0.01 0.08-0.6 7.78 2.51 10.82 0.4 0.39 0.41 1.04 0.02 1.44C170.8 79.48 170.54 79.58 170.27 79.58L170.27 79.58z"/>
  <path fill="#171419" d="M173.21 71.81c0.59 3.26 0.01 6.08-1.27 6.32 -1.29 0.23-2.8-2.22-3.39-5.48 -0.58-3.25-0.01-6.08 1.28-6.31C171.11 66.11 172.63 68.56 173.21 71.81"/>
  <polygon fill="#171419" points="169.82 66.34 189.51 63.58 191.62 75.37 171.94 78.13 "/>
  <path fill="#171419" d="M191.73 69.42c0.59 3.26 0.02 6.08-1.27 6.31 -1.29 0.23-2.81-2.22-3.4-5.48s-0.01-6.08 1.28-6.31C189.63 63.71 191.15 66.16 191.73 69.42"/>
  <path fill="#FFFFFF" d="M190.29 76.46c-1.95 0-3.41-3.15-3.94-6.08 -0.3-1.66-0.32-3.28-0.06-4.56 0.41-2.02 1.38-2.49 1.92-2.59 0.1-0.02 0.2-0.03 0.3-0.03 1.96 0 3.4 3.15 3.92 6.08 0.59 3.28 0.14 6.79-1.85 7.15C190.49 76.45 190.39 76.46 190.29 76.46L190.29 76.46zM188.52 64.64c-0.28 0.05-0.62 0.52-0.81 1.46 -0.22 1.11-0.2 2.53 0.07 4.02 0.59 3.26 1.93 4.9 2.52 4.9l0.04 0c0.57-0.1 1.27-2.26 0.69-5.48C190.45 66.33 189.09 64.64 188.52 64.64L188.52 64.64z"/>
</svg>
