<svg xmlns:dc="http://purl.org/dc/elements/1.1/" xmlns:cc="http://creativecommons.org/ns#" xmlns:rdf="http://www.w3.org/1999/02/22-rdf-syntax-ns#" xmlns:svg="http://www.w3.org/2000/svg" xmlns="http://www.w3.org/2000/svg" xmlns:sodipodi="http://sodipodi.sourceforge.net/DTD/sodipodi-0.dtd" xmlns:inkscape="http://www.inkscape.org/namespaces/inkscape" viewBox="0 0 1152.7139 1152.44" version="1.1" x="0px" y="0px"><g transform="translate(-2808.8121,4801.2987)"><path style="" d="m 3332.0064,-3650.6015 c -109.2119,-10.8404 -207.5312,-48.9146 -293.7072,-113.7382 -130.5933,-98.2354 -211.7055,-244.0649 -227.5093,-409.0331 -3.7012,-38.636 -2.09,-95.6271 3.8495,-136.1613 28.5775,-195.0277 157.0086,-363.4284 338.0348,-443.236 45.5207,-20.0684 99.2333,-35.5785 147.9127,-42.7115 52.931,-7.7561 116.2436,-7.7561 169.1746,0 195.0277,28.5775 363.4284,157.0086 443.236,338.0348 20.0684,45.5207 35.5785,99.2333 42.7115,147.9127 7.7561,52.931 7.7561,116.2436 0,169.1746 -21.9711,149.9424 -103.9846,287.0328 -226.1128,377.9611 -85.7805,63.8663 -184.1151,101.4194 -292.848,111.8359 -23.8926,2.2888 -81.506,2.2674 -104.7418,-0.039 z m 82.9061,-415.4849 c 65.2118,-12.6413 115.2308,-62.6603 127.8721,-127.8721 3.2473,-16.7516 3.2473,-42.725 0,-59.4766 -12.6413,-65.2118 -62.6603,-115.2308 -127.8721,-127.8721 -16.7516,-3.2473 -42.725,-3.2473 -59.4766,0 -56.8212,11.0147 -103.4602,51.3721 -122.0835,105.6403 -11.0626,32.2363 -11.0626,71.7039 0,103.9402 18.4764,53.8399 64.8991,94.2809 121.1733,105.5597 15.9822,3.2032 44.0849,3.2407 60.3868,0.081 z" fill="#000000"></path></g></svg>
