<svg xmlns="http://www.w3.org/2000/svg" xmlns:xlink="http://www.w3.org/1999/xlink" version="1.1" id="Layer_1" x="0" y="0" viewBox="17.6 17.6 164.93 165" enable-background="new 17.6 17.6 164.925 165" xml:space="preserve">
  <path fill="#fff" d="M180 167.8l-39.2-39.2c21-27 18.6-66.6-5.6-90.8 -13-13.2-30.4-20.2-48.8-20.2s-35.8 7.2-48.8 20.2c-13 12.8-20 30.2-20 48.6s7.2 35.8 20.2 48.8c12.8 12.8 30.2 20 48.6 20 15.2 0 30.2-5 42.4-14.4l39 39.2c1.6 1.6 3.8 2.6 6 2.6s4.4-1 6-2.6C183.4 176.4 183.4 171.2 180 167.8zM137.6 86.2c0 13.8-5.4 26.8-15 36.4C113 132.4 100 137.8 86.2 137.8c-13.8 0-26.8-5.4-36.4-15.2l0 0c-20-20-20-52.6 0-72.8 9.8-9.8 22.6-15.2 36.4-15.2 13.6 0 26.6 5.4 36.4 15.2C132.2 59.4 137.6 72.4 137.6 86.2z"/>
</svg>
